<?xml version="1.0" encoding="UTF-8"?>
<!--Generator: Apple Native CoreSVG 123-->
<!DOCTYPE svg
PUBLIC "-//W3C//DTD SVG 1.1//EN"
       "http://www.w3.org/Graphics/SVG/1.1/DTD/svg11.dtd">
<svg version="1.1" xmlns="http://www.w3.org/2000/svg" xmlns:xlink="http://www.w3.org/1999/xlink" width="3300" height="2200">
 <!--glyph: "uni1003AB.medium", point size: 100.000000, font version: "Version 15.0d7e11", template writer version: "5"-->
 <g id="Notes">
  <rect height="2200" id="artboard" style="fill:white;opacity:1" width="3300" x="0" y="0"/>
  <line id="" style="fill:none;stroke:black;opacity:1;stroke-width:0.5;" x1="263" x2="3036" y1="292" y2="292"/>
  <text style="stroke:none;fill:black;font-family:-apple-system,&quot;SF Pro Display&quot;,&quot;SF Pro Text&quot;,Helvetica,sans-serif;font-weight:bold;" transform="matrix(1 0 0 1 263 322)">Weight/Scale Variations</text>
  <text style="stroke:none;fill:black;font-family:-apple-system,&quot;SF Pro Display&quot;,&quot;SF Pro Text&quot;,Helvetica,sans-serif;text-anchor:middle;" transform="matrix(1 0 0 1 559.711 322)">Ultralight</text>
  <text style="stroke:none;fill:black;font-family:-apple-system,&quot;SF Pro Display&quot;,&quot;SF Pro Text&quot;,Helvetica,sans-serif;text-anchor:middle;" transform="matrix(1 0 0 1 856.422 322)">Thin</text>
  <text style="stroke:none;fill:black;font-family:-apple-system,&quot;SF Pro Display&quot;,&quot;SF Pro Text&quot;,Helvetica,sans-serif;text-anchor:middle;" transform="matrix(1 0 0 1 1153.13 322)">Light</text>
  <text style="stroke:none;fill:black;font-family:-apple-system,&quot;SF Pro Display&quot;,&quot;SF Pro Text&quot;,Helvetica,sans-serif;text-anchor:middle;" transform="matrix(1 0 0 1 1449.84 322)">Regular</text>
  <text style="stroke:none;fill:black;font-family:-apple-system,&quot;SF Pro Display&quot;,&quot;SF Pro Text&quot;,Helvetica,sans-serif;text-anchor:middle;" transform="matrix(1 0 0 1 1746.56 322)">Medium</text>
  <text style="stroke:none;fill:black;font-family:-apple-system,&quot;SF Pro Display&quot;,&quot;SF Pro Text&quot;,Helvetica,sans-serif;text-anchor:middle;" transform="matrix(1 0 0 1 2043.27 322)">Semibold</text>
  <text style="stroke:none;fill:black;font-family:-apple-system,&quot;SF Pro Display&quot;,&quot;SF Pro Text&quot;,Helvetica,sans-serif;text-anchor:middle;" transform="matrix(1 0 0 1 2339.98 322)">Bold</text>
  <text style="stroke:none;fill:black;font-family:-apple-system,&quot;SF Pro Display&quot;,&quot;SF Pro Text&quot;,Helvetica,sans-serif;text-anchor:middle;" transform="matrix(1 0 0 1 2636.69 322)">Heavy</text>
  <text style="stroke:none;fill:black;font-family:-apple-system,&quot;SF Pro Display&quot;,&quot;SF Pro Text&quot;,Helvetica,sans-serif;text-anchor:middle;" transform="matrix(1 0 0 1 2933.4 322)">Black</text>
  <line id="" style="fill:none;stroke:black;opacity:1;stroke-width:0.5;" x1="263" x2="3036" y1="1903" y2="1903"/>
  <g id="" transform="matrix(1 0 0 1 263 1933)">
   <path d="M 9.24805 0.830078 C 13.5547 0.830078 17.1387 -2.74414 17.1387 -7.05078 C 17.1387 -11.3574 13.5449 -14.9316 9.23828 -14.9316 C 4.94141 -14.9316 1.36719 -11.3574 1.36719 -7.05078 C 1.36719 -2.74414 4.95117 0.830078 9.24805 0.830078 Z M 9.24805 -0.654297 C 5.70312 -0.654297 2.87109 -3.49609 2.87109 -7.05078 C 2.87109 -10.6055 5.69336 -13.4473 9.23828 -13.4473 C 12.793 -13.4473 15.6348 -10.6055 15.6445 -7.05078 C 15.6543 -3.49609 12.8027 -0.654297 9.24805 -0.654297 Z M 9.22852 -3.42773 C 9.69727 -3.42773 9.9707 -3.74023 9.9707 -4.25781 L 9.9707 -6.31836 L 12.1973 -6.31836 C 12.6953 -6.31836 13.0371 -6.57227 13.0371 -7.04102 C 13.0371 -7.51953 12.7148 -7.7832 12.1973 -7.7832 L 9.9707 -7.7832 L 9.9707 -10.0098 C 9.9707 -10.5273 9.69727 -10.8496 9.22852 -10.8496 C 8.75977 -10.8496 8.50586 -10.5078 8.50586 -10.0098 L 8.50586 -7.7832 L 6.29883 -7.7832 C 5.78125 -7.7832 5.44922 -7.51953 5.44922 -7.04102 C 5.44922 -6.57227 5.80078 -6.31836 6.29883 -6.31836 L 8.50586 -6.31836 L 8.50586 -4.25781 C 8.50586 -3.75977 8.75977 -3.42773 9.22852 -3.42773 Z"/>
  </g>
  <g id="" transform="matrix(1 0 0 1 281.506 1933)">
   <path d="M 11.709 2.91016 C 17.1582 2.91016 21.6699 -1.60156 21.6699 -7.05078 C 21.6699 -12.4902 17.1484 -17.0117 11.6992 -17.0117 C 6.25977 -17.0117 1.74805 -12.4902 1.74805 -7.05078 C 1.74805 -1.60156 6.26953 2.91016 11.709 2.91016 Z M 11.709 1.25 C 7.09961 1.25 3.41797 -2.44141 3.41797 -7.05078 C 3.41797 -11.6504 7.08984 -15.3516 11.6992 -15.3516 C 16.3086 -15.3516 20 -11.6504 20.0098 -7.05078 C 20.0195 -2.44141 16.3184 1.25 11.709 1.25 Z M 11.6895 -2.41211 C 12.207 -2.41211 12.5195 -2.77344 12.5195 -3.33984 L 12.5195 -6.23047 L 15.5762 -6.23047 C 16.123 -6.23047 16.5039 -6.51367 16.5039 -7.03125 C 16.5039 -7.55859 16.1426 -7.86133 15.5762 -7.86133 L 12.5195 -7.86133 L 12.5195 -10.9277 C 12.5195 -11.5039 12.207 -11.8555 11.6895 -11.8555 C 11.1719 -11.8555 10.8789 -11.4844 10.8789 -10.9277 L 10.8789 -7.86133 L 7.83203 -7.86133 C 7.26562 -7.86133 6.89453 -7.55859 6.89453 -7.03125 C 6.89453 -6.51367 7.28516 -6.23047 7.83203 -6.23047 L 10.8789 -6.23047 L 10.8789 -3.33984 C 10.8789 -2.79297 11.1719 -2.41211 11.6895 -2.41211 Z"/>
  </g>
  <g id="" transform="matrix(1 0 0 1 304.924 1933)">
   <path d="M 14.9707 5.67383 C 21.9336 5.67383 27.6953 -0.078125 27.6953 -7.04102 C 27.6953 -14.0039 21.9238 -19.7559 14.9609 -19.7559 C 8.00781 -19.7559 2.25586 -14.0039 2.25586 -7.04102 C 2.25586 -0.078125 8.01758 5.67383 14.9707 5.67383 Z M 14.9707 3.85742 C 8.93555 3.85742 4.08203 -1.00586 4.08203 -7.04102 C 4.08203 -13.0762 8.92578 -17.9395 14.9609 -17.9395 C 21.0059 -17.9395 25.8594 -13.0762 25.8691 -7.04102 C 25.8789 -1.00586 21.0156 3.85742 14.9707 3.85742 Z M 14.9512 -1.06445 C 15.5176 -1.06445 15.8691 -1.45508 15.8691 -2.06055 L 15.8691 -6.13281 L 20.1074 -6.13281 C 20.6934 -6.13281 21.1133 -6.46484 21.1133 -7.02148 C 21.1133 -7.59766 20.7227 -7.93945 20.1074 -7.93945 L 15.8691 -7.93945 L 15.8691 -12.1875 C 15.8691 -12.8027 15.5176 -13.1934 14.9512 -13.1934 C 14.3848 -13.1934 14.0625 -12.7832 14.0625 -12.1875 L 14.0625 -7.93945 L 9.83398 -7.93945 C 9.21875 -7.93945 8.80859 -7.59766 8.80859 -7.02148 C 8.80859 -6.46484 9.23828 -6.13281 9.83398 -6.13281 L 14.0625 -6.13281 L 14.0625 -2.06055 C 14.0625 -1.47461 14.3848 -1.06445 14.9512 -1.06445 Z"/>
  </g>
  <text style="stroke:none;fill:black;font-family:-apple-system,&quot;SF Pro Display&quot;,&quot;SF Pro Text&quot;,Helvetica,sans-serif;font-weight:bold;" transform="matrix(1 0 0 1 263 1953)">Design Variations</text>
  <text style="stroke:none;fill:black;font-family:-apple-system,&quot;SF Pro Display&quot;,&quot;SF Pro Text&quot;,Helvetica,sans-serif;" transform="matrix(1 0 0 1 263 1971)">Symbols are supported in up to nine weights and three scales.</text>
  <text style="stroke:none;fill:black;font-family:-apple-system,&quot;SF Pro Display&quot;,&quot;SF Pro Text&quot;,Helvetica,sans-serif;" transform="matrix(1 0 0 1 263 1989)">For optimal layout with text and other symbols, vertically align</text>
  <text style="stroke:none;fill:black;font-family:-apple-system,&quot;SF Pro Display&quot;,&quot;SF Pro Text&quot;,Helvetica,sans-serif;" transform="matrix(1 0 0 1 263 2007)">symbols with the adjacent text.</text>
  <rect height="14" id="" style="fill:#00AEEF;stroke:none;opacity:0.4;" width="3" x="776" y="1919"/>
  <g id="" transform="matrix(1 0 0 1 779 1933)">
   <path d="M 10.5273 0 L 12.373 0 L 7.17773 -14.0918 L 5.43945 -14.0918 L 0.244141 0 L 2.08984 0 L 3.50586 -4.0332 L 9.11133 -4.0332 Z M 6.2793 -11.9531 L 6.33789 -11.9531 L 8.59375 -5.52734 L 4.02344 -5.52734 Z"/>
  </g>
  <rect height="14" id="" style="fill:#00AEEF;stroke:none;opacity:0.4;" width="3" x="791.617" y="1919"/>
  <text style="stroke:none;fill:black;font-family:-apple-system,&quot;SF Pro Display&quot;,&quot;SF Pro Text&quot;,Helvetica,sans-serif;font-weight:bold;" transform="matrix(1 0 0 1 776 1953)">Margins</text>
  <text style="stroke:none;fill:black;font-family:-apple-system,&quot;SF Pro Display&quot;,&quot;SF Pro Text&quot;,Helvetica,sans-serif;" transform="matrix(1 0 0 1 776 1971)">Leading and trailing margins on the left and right side of each symbol</text>
  <text style="stroke:none;fill:black;font-family:-apple-system,&quot;SF Pro Display&quot;,&quot;SF Pro Text&quot;,Helvetica,sans-serif;" transform="matrix(1 0 0 1 776 1989)">can be adjusted by modifying the width of the blue rectangles.</text>
  <text style="stroke:none;fill:black;font-family:-apple-system,&quot;SF Pro Display&quot;,&quot;SF Pro Text&quot;,Helvetica,sans-serif;" transform="matrix(1 0 0 1 776 2007)">Modifications are automatically applied proportionally to all</text>
  <text style="stroke:none;fill:black;font-family:-apple-system,&quot;SF Pro Display&quot;,&quot;SF Pro Text&quot;,Helvetica,sans-serif;" transform="matrix(1 0 0 1 776 2025)">scales and weights.</text>
  <g id="" transform="matrix(1 0 0 1 1289 1933)">
   <path d="M 2.83203 3.11523 L 4.375 4.6582 C 5.22461 5.48828 6.19141 5.41992 7.06055 4.46289 L 17.2754 -6.66016 C 17.7051 -6.36719 18.0957 -6.37695 18.5645 -6.47461 L 19.6094 -6.68945 L 20.3027 -5.99609 L 20.2539 -5.47852 C 20.1855 -4.95117 20.3516 -4.53125 20.8496 -4.0332 L 21.6602 -3.22266 C 22.168 -2.71484 22.8223 -2.68555 23.3008 -3.16406 L 26.5527 -6.41602 C 27.0312 -6.89453 27.0117 -7.54883 26.5039 -8.05664 L 25.6836 -8.87695 C 25.1855 -9.375 24.7754 -9.55078 24.2383 -9.47266 L 23.7109 -9.41406 L 23.0566 -10.0781 L 23.3398 -11.2207 C 23.4863 -11.7871 23.3398 -12.2559 22.7148 -12.8613 L 20.3027 -15.2539 C 16.7578 -18.7793 12.2266 -18.6719 9.11133 -15.5371 C 8.69141 -15.1074 8.64258 -14.5215 8.91602 -14.0918 C 9.15039 -13.7207 9.62891 -13.4961 10.2734 -13.6621 C 11.7871 -14.043 13.3008 -13.9258 14.7852 -12.9199 L 14.1602 -11.3379 C 13.9258 -10.752 13.9453 -10.2734 14.1797 -9.83398 L 3.01758 0.439453 C 2.08008 1.30859 1.97266 2.25586 2.83203 3.11523 Z M 10.6738 -15.1465 C 13.3398 -17.1387 16.6504 -16.8262 19.0527 -14.4141 L 21.6797 -11.8066 C 21.9141 -11.5723 21.9434 -11.3867 21.8848 -11.0938 L 21.5039 -9.53125 L 23.0762 -7.95898 L 24.043 -8.04688 C 24.3262 -8.07617 24.4141 -8.05664 24.6387 -7.83203 L 25.2637 -7.20703 L 22.5098 -4.46289 L 21.8848 -5.07812 C 21.6602 -5.30273 21.6406 -5.40039 21.6699 -5.68359 L 21.7578 -6.64062 L 20.1953 -8.20312 L 18.5742 -7.89062 C 18.291 -7.83203 18.1445 -7.83203 17.9102 -8.07617 L 15.7324 -10.2539 C 15.5078 -10.4883 15.4785 -10.625 15.6055 -10.9473 L 16.5527 -13.2227 C 14.9512 -14.7559 12.8418 -15.6055 10.8008 -14.9512 C 10.7129 -14.9219 10.6445 -14.9414 10.6152 -14.9805 C 10.5859 -15.0293 10.5859 -15.0781 10.6738 -15.1465 Z M 4.10156 2.41211 C 3.61328 1.91406 3.78906 1.61133 4.12109 1.30859 L 15.0781 -8.80859 L 16.3086 -7.57812 L 6.15234 3.34961 C 5.84961 3.68164 5.46875 3.7793 5.06836 3.37891 Z"/>
  </g>
  <text style="stroke:none;fill:black;font-family:-apple-system,&quot;SF Pro Display&quot;,&quot;SF Pro Text&quot;,Helvetica,sans-serif;font-weight:bold;" transform="matrix(1 0 0 1 1289 1953)">Exporting</text>
  <text style="stroke:none;fill:black;font-family:-apple-system,&quot;SF Pro Display&quot;,&quot;SF Pro Text&quot;,Helvetica,sans-serif;" transform="matrix(1 0 0 1 1289 1971)">Symbols should be outlined when exporting to ensure the</text>
  <text style="stroke:none;fill:black;font-family:-apple-system,&quot;SF Pro Display&quot;,&quot;SF Pro Text&quot;,Helvetica,sans-serif;" transform="matrix(1 0 0 1 1289 1989)">design is preserved when submitting to Xcode.</text>
  <text id="template-version" style="stroke:none;fill:black;font-family:-apple-system,&quot;SF Pro Display&quot;,&quot;SF Pro Text&quot;,Helvetica,sans-serif;text-anchor:end;" transform="matrix(1 0 0 1 3036 1933)">Template v.1.0</text>
  <text style="stroke:none;fill:black;font-family:-apple-system,&quot;SF Pro Display&quot;,&quot;SF Pro Text&quot;,Helvetica,sans-serif;text-anchor:end;" transform="matrix(1 0 0 1 3036 1951)">Generated from mappin.and.ellipse</text>
  <text style="stroke:none;fill:black;font-family:-apple-system,&quot;SF Pro Display&quot;,&quot;SF Pro Text&quot;,Helvetica,sans-serif;text-anchor:end;" transform="matrix(1 0 0 1 3036 1969)">Typeset at 100 points</text>
  <text style="stroke:none;fill:black;font-family:-apple-system,&quot;SF Pro Display&quot;,&quot;SF Pro Text&quot;,Helvetica,sans-serif;" transform="matrix(1 0 0 1 263 726)">Small</text>
  <text style="stroke:none;fill:black;font-family:-apple-system,&quot;SF Pro Display&quot;,&quot;SF Pro Text&quot;,Helvetica,sans-serif;" transform="matrix(1 0 0 1 263 1156)">Medium</text>
  <text style="stroke:none;fill:black;font-family:-apple-system,&quot;SF Pro Display&quot;,&quot;SF Pro Text&quot;,Helvetica,sans-serif;" transform="matrix(1 0 0 1 263 1586)">Large</text>
 </g>
 <g id="Guides">
  <g id="H-reference" style="fill:#27AAE1;stroke:none;" transform="matrix(1 0 0 1 339 696)">
   <path d="M 54.9316 0 L 57.666 0 L 30.5664 -70.459 L 28.0762 -70.459 L 0.976562 0 L 3.66211 0 L 12.9395 -24.4629 L 45.7031 -24.4629 Z M 29.1992 -67.0898 L 29.4434 -67.0898 L 44.8242 -26.709 L 13.8184 -26.709 Z"/>
  </g>
  <line id="Baseline-S" style="fill:none;stroke:#27AAE1;opacity:1;stroke-width:0.577;" x1="263" x2="3036" y1="696" y2="696"/>
  <line id="Capline-S" style="fill:none;stroke:#27AAE1;opacity:1;stroke-width:0.577;" x1="263" x2="3036" y1="625.541" y2="625.541"/>
  <g id="H-reference" style="fill:#27AAE1;stroke:none;" transform="matrix(1 0 0 1 339 1126)">
   <path d="M 54.9316 0 L 57.666 0 L 30.5664 -70.459 L 28.0762 -70.459 L 0.976562 0 L 3.66211 0 L 12.9395 -24.4629 L 45.7031 -24.4629 Z M 29.1992 -67.0898 L 29.4434 -67.0898 L 44.8242 -26.709 L 13.8184 -26.709 Z"/>
  </g>
  <line id="Baseline-M" style="fill:none;stroke:#27AAE1;opacity:1;stroke-width:0.577;" x1="263" x2="3036" y1="1126" y2="1126"/>
  <line id="Capline-M" style="fill:none;stroke:#27AAE1;opacity:1;stroke-width:0.577;" x1="263" x2="3036" y1="1055.54" y2="1055.54"/>
  <g id="H-reference" style="fill:#27AAE1;stroke:none;" transform="matrix(1 0 0 1 339 1556)">
   <path d="M 54.9316 0 L 57.666 0 L 30.5664 -70.459 L 28.0762 -70.459 L 0.976562 0 L 3.66211 0 L 12.9395 -24.4629 L 45.7031 -24.4629 Z M 29.1992 -67.0898 L 29.4434 -67.0898 L 44.8242 -26.709 L 13.8184 -26.709 Z"/>
  </g>
  <line id="Baseline-L" style="fill:none;stroke:#27AAE1;opacity:1;stroke-width:0.577;" x1="263" x2="3036" y1="1556" y2="1556"/>
  <line id="Capline-L" style="fill:none;stroke:#27AAE1;opacity:1;stroke-width:0.577;" x1="263" x2="3036" y1="1485.54" y2="1485.54"/>
  <rect height="119.336" id="left-margin" style="fill:#00AEEF;stroke:none;opacity:0.4;" width="8.74023" x="1394.74" y="1030.79"/>
  <rect height="119.336" id="right-margin" style="fill:#00AEEF;stroke:none;opacity:0.4;" width="8.74023" x="1496.21" y="1030.79"/>
 </g>
 <g id="Symbols">
  <g id="Black-L" transform="matrix(1 0 0 1 2845.14 1556)">
   <path d="M 88.4277 8.93555 C 91.9434 8.93555 97.7051 -3.51562 97.7051 -16.5527 L 97.7051 -54.2969 C 109.521 -58.2031 117.969 -69.3848 117.969 -82.4707 C 117.969 -98.8281 104.883 -112.158 88.4277 -112.158 C 72.0215 -112.158 58.8379 -98.8281 58.8379 -82.4707 C 58.8379 -69.3848 67.2852 -58.252 79.0527 -54.3457 L 79.0527 -16.5527 C 79.0527 -3.51562 84.9121 8.93555 88.4277 8.93555 Z M 80.1758 -80.6152 C 74.8047 -80.6152 70.0684 -85.3516 70.0684 -90.8203 C 70.0684 -96.2891 74.8047 -100.928 80.1758 -100.928 C 85.7422 -100.928 90.2832 -96.2891 90.2832 -90.8203 C 90.2832 -85.3516 85.7422 -80.6152 80.1758 -80.6152 Z M 88.2324 39.3066 C 134.961 39.3066 165.234 24.5117 165.234 4.05273 C 165.234 -14.1602 140.234 -27.4414 109.619 -30.3711 L 109.619 -12.6465 C 129.004 -10.6934 145.264 -4.54102 145.264 3.51562 C 145.264 14.3066 121.631 21.3379 88.2324 21.3379 C 54.834 21.3379 31.2012 14.3066 31.2012 3.51562 C 31.2012 -4.54102 47.5098 -10.6934 66.8457 -12.6465 L 66.8457 -30.3711 C 36.2793 -27.4414 11.2793 -14.1602 11.2793 4.05273 C 11.2793 24.5117 41.5039 39.3066 88.2324 39.3066 Z"/>
  </g>
  <g id="Heavy-L" transform="matrix(1 0 0 1 2552.73 1556)">
   <path d="M 84.082 9.27734 C 87.3047 9.27734 92.334 -2.19727 92.334 -15.9668 L 92.334 -55.2734 C 103.711 -58.7891 111.914 -69.4336 111.914 -81.9336 C 111.914 -97.3145 99.5605 -109.863 84.082 -109.863 C 68.6523 -109.863 56.2988 -97.3145 56.2988 -81.9336 C 56.2988 -69.4824 64.4531 -58.8379 75.7812 -55.3223 L 75.7812 -15.9668 C 75.7812 -2.24609 80.9082 9.27734 84.082 9.27734 Z M 76.2695 -80.2734 C 71.1914 -80.2734 66.748 -84.7168 66.748 -89.8438 C 66.748 -95.0195 71.1914 -99.3652 76.2695 -99.3652 C 81.4941 -99.3652 85.7422 -95.0195 85.7422 -89.8438 C 85.7422 -84.7168 81.4941 -80.2734 76.2695 -80.2734 Z M 83.9355 37.6953 C 128.32 37.6953 156.641 23.4863 156.641 4.58984 C 156.641 -12.9883 131.494 -25.4395 103.955 -27.7344 L 103.955 -12.3047 C 121.826 -10.7422 138.867 -4.49219 138.867 3.90625 C 138.867 14.7461 115.967 21.9727 83.9355 21.9727 C 51.9043 21.9727 29.0527 14.7949 29.0527 3.90625 C 29.0527 -4.49219 46.0938 -10.7422 63.9648 -12.3047 L 63.9648 -27.7344 C 36.4258 -25.4395 11.2793 -12.9883 11.2793 4.58984 C 11.2793 23.4863 39.5996 37.6953 83.9355 37.6953 Z"/>
  </g>
  <g id="Bold-L" transform="matrix(1 0 0 1 2260.83 1556)">
   <path d="M 79.248 9.7168 C 82.0801 9.7168 86.3281 -0.78125 86.3281 -15.2344 L 86.3281 -56.3965 C 97.2168 -59.4727 105.078 -69.4824 105.078 -81.2988 C 105.078 -95.6055 93.6035 -107.275 79.248 -107.275 C 64.8926 -107.275 53.418 -95.6055 53.418 -81.2988 C 53.418 -69.5312 61.2793 -59.5215 72.1191 -56.3965 L 72.1191 -15.2344 C 72.1191 -0.830078 76.416 9.7168 79.248 9.7168 Z M 71.875 -79.8828 C 67.1875 -79.8828 63.0371 -83.9844 63.0371 -88.7695 C 63.0371 -93.5547 67.1875 -97.6074 71.875 -97.6074 C 76.7578 -97.6074 80.7129 -93.5547 80.7129 -88.7695 C 80.7129 -83.9844 76.7578 -79.8828 71.875 -79.8828 Z M 79.1504 35.8887 C 120.85 35.8887 147.021 22.3633 147.021 5.22461 C 147.021 -11.6699 121.68 -23.1934 97.6074 -24.7559 L 97.6074 -11.9629 C 113.818 -10.8398 131.689 -4.44336 131.689 4.39453 C 131.689 15.2832 109.619 22.6562 79.1504 22.6562 C 48.6816 22.6562 26.6113 15.332 26.6113 4.39453 C 26.6113 -4.44336 44.4824 -10.8398 60.6934 -11.9629 L 60.6934 -24.7559 C 36.6211 -23.1934 11.2793 -11.6699 11.2793 5.22461 C 11.2793 22.3633 37.4512 35.8887 79.1504 35.8887 Z"/>
  </g>
  <g id="Semibold-L" transform="matrix(1 0 0 1 1967.41 1556)">
   <path d="M 75.8789 9.96094 C 78.4668 9.96094 82.1777 0.244141 82.1777 -14.7461 L 82.1777 -57.1777 C 92.7246 -59.9609 100.342 -69.5312 100.342 -80.9082 C 100.342 -94.4336 89.502 -105.469 75.8789 -105.469 C 62.3047 -105.469 51.416 -94.4336 51.416 -80.9082 C 51.416 -69.5801 59.082 -60.0098 69.5801 -57.1777 L 69.5801 -14.7461 C 69.5801 0.195312 73.291 9.96094 75.8789 9.96094 Z M 68.8477 -79.5898 C 64.4043 -79.5898 60.498 -83.4961 60.498 -88.0371 C 60.498 -92.5781 64.4043 -96.3867 68.8477 -96.3867 C 73.4375 -96.3867 77.2461 -92.5781 77.2461 -88.0371 C 77.2461 -83.4961 73.4375 -79.5898 68.8477 -79.5898 Z M 75.8301 34.668 C 115.723 34.668 140.43 21.582 140.43 5.66406 C 140.43 -10.791 114.941 -21.6309 93.2129 -22.7051 L 93.2129 -11.7188 C 108.301 -10.9375 126.758 -4.39453 126.758 4.6875 C 126.758 15.6738 105.225 23.1445 75.8301 23.1445 C 46.4355 23.1445 24.9512 15.7227 24.9512 4.6875 C 24.9512 -4.39453 43.4082 -10.9375 58.4961 -11.7188 L 58.4961 -22.7051 C 36.7188 -21.6309 11.2793 -10.791 11.2793 5.66406 C 11.2793 21.582 35.9863 34.668 75.8301 34.668 Z"/>
  </g>
  <g id="Medium-L" transform="matrix(1 0 0 1 1673.22 1556)">
   <path d="M 73.3887 10.2051 C 75.7812 10.2051 79.0527 0.976562 79.0527 -14.4043 L 79.0527 -57.7637 C 89.3066 -60.3027 96.7773 -69.5801 96.7773 -80.5664 C 96.7773 -93.5547 86.377 -104.102 73.3887 -104.102 C 60.3516 -104.102 49.9512 -93.5547 49.9512 -80.5664 C 49.9512 -69.6289 57.4219 -60.3516 67.627 -57.7637 L 67.627 -14.4043 C 67.627 0.927734 70.9473 10.2051 73.3887 10.2051 Z M 66.5527 -79.3945 C 62.3047 -79.3945 58.5449 -83.1055 58.5449 -87.4512 C 58.5449 -91.7969 62.3047 -95.459 66.5527 -95.459 C 70.9473 -95.459 74.5605 -91.7969 74.5605 -87.4512 C 74.5605 -83.1055 70.9473 -79.3945 66.5527 -79.3945 Z M 73.3398 33.7402 C 111.816 33.7402 135.4 20.9961 135.4 5.95703 C 135.4 -10.1074 109.863 -20.459 89.8926 -21.1914 L 89.8926 -11.5234 C 104.102 -10.9863 122.998 -4.39453 122.998 4.93164 C 122.998 15.9668 101.904 23.5352 73.3398 23.5352 C 44.7266 23.5352 23.6816 16.0156 23.6816 4.93164 C 23.6816 -4.39453 42.5293 -10.9863 56.7871 -11.5234 L 56.7871 -21.1914 C 36.8164 -20.459 11.2793 -10.1074 11.2793 5.95703 C 11.2793 20.9961 34.8633 33.7402 73.3398 33.7402 Z"/>
  </g>
  <g id="Regular-L" transform="matrix(1 0 0 1 1379.78 1556)">
   <path d="M 70.0684 10.498 C 72.2168 10.498 74.9512 2.00195 74.9512 -13.916 L 74.9512 -58.5449 C 84.8633 -60.791 92.1387 -69.6289 92.1387 -80.1758 C 92.1387 -92.3828 82.3242 -102.344 70.0684 -102.344 C 57.7637 -102.344 47.9492 -92.3828 47.9492 -80.1758 C 47.9492 -69.6777 55.2734 -60.791 65.1367 -58.5449 L 65.1367 -13.916 C 65.1367 1.9043 67.9199 10.498 70.0684 10.498 Z M 63.5742 -79.1016 C 59.5703 -79.1016 56.0059 -82.6172 56.0059 -86.7188 C 56.0059 -90.8203 59.5703 -94.2871 63.5742 -94.2871 C 67.7246 -94.2871 71.1426 -90.8203 71.1426 -86.7188 C 71.1426 -82.6172 67.7246 -79.1016 63.5742 -79.1016 Z M 70.0684 32.5195 C 106.738 32.5195 128.857 20.2148 128.857 6.39648 C 128.857 -9.22852 103.174 -18.9453 85.5469 -19.1406 L 85.5469 -11.2305 C 98.6816 -11.0352 118.115 -4.3457 118.115 5.22461 C 118.115 16.3086 97.5586 24.0234 70.0684 24.0234 C 42.4805 24.0234 22.0215 16.4062 22.0215 5.22461 C 22.0215 -4.3457 41.4551 -11.0352 54.5898 -11.2305 L 54.5898 -19.1406 C 36.9629 -18.9453 11.2793 -9.22852 11.2793 6.39648 C 11.2793 20.2148 33.3984 32.5195 70.0684 32.5195 Z"/>
  </g>
  <g id="Light-L" transform="matrix(1 0 0 1 1084.51 1556)">
   <path d="M 68.6035 9.96094 C 70.2148 9.96094 72.2656 3.61328 72.2656 -8.59375 L 72.2656 -59.7656 C 81.5918 -61.4746 88.5742 -69.6777 88.5742 -79.4922 C 88.5742 -90.5273 79.7363 -99.5117 68.6035 -99.5117 C 57.5195 -99.5117 48.6328 -90.5273 48.6328 -79.4922 C 48.6328 -69.6777 55.6152 -61.4746 64.9414 -59.7656 L 64.9414 -8.59375 C 64.9414 3.56445 66.9922 9.96094 68.6035 9.96094 Z M 62.5488 -78.7598 C 58.9355 -78.7598 55.7129 -81.9336 55.7129 -85.5957 C 55.7129 -89.3066 58.9355 -92.4316 62.5488 -92.4316 C 66.3086 -92.4316 69.3848 -89.3066 69.3848 -85.5957 C 69.3848 -81.9336 66.3086 -78.7598 62.5488 -78.7598 Z M 68.6035 30.6152 C 103.467 30.6152 125.977 19.4336 125.977 5.66406 C 125.977 -8.59375 101.27 -17.6758 83.3008 -17.9199 L 83.3008 -11.8652 C 97.7051 -11.5723 118.018 -4.83398 118.018 4.88281 C 118.018 16.3086 96.6797 24.1211 68.6035 24.1211 C 40.5273 24.1211 19.1895 16.4062 19.1895 4.88281 C 19.1895 -4.83398 39.5508 -11.5723 53.9551 -11.8652 L 53.9551 -17.9199 C 35.9375 -17.6758 11.2793 -8.59375 11.2793 5.66406 C 11.2793 19.4336 33.7891 30.6152 68.6035 30.6152 Z"/>
  </g>
  <g id="Thin-L" transform="matrix(1 0 0 1 789.723 1556)">
   <path d="M 66.6992 9.22852 C 67.627 9.22852 68.7012 5.81055 68.7012 -1.51367 L 68.7012 -61.4258 C 77.2949 -62.4023 83.8379 -69.7266 83.8379 -78.5645 C 83.8379 -88.0371 76.2695 -95.752 66.6992 -95.752 C 57.1289 -95.752 49.5605 -88.0371 49.5605 -78.5645 C 49.5605 -69.7266 56.1035 -62.4023 64.7461 -61.4258 L 64.7461 -1.51367 C 64.7461 5.71289 65.8203 9.22852 66.6992 9.22852 Z M 61.1816 -78.2715 C 58.0566 -78.2715 55.3223 -80.957 55.3223 -84.1309 C 55.3223 -87.3535 58.0566 -90.0391 61.1816 -90.0391 C 64.3555 -90.0391 67.041 -87.3535 67.041 -84.1309 C 67.041 -80.957 64.3555 -78.2715 61.1816 -78.2715 Z M 66.6992 28.0273 C 99.1211 28.0273 122.119 18.3105 122.119 4.63867 C 122.119 -7.76367 98.7793 -16.0156 80.2734 -16.3086 L 80.2734 -12.6465 C 96.3867 -12.3047 117.92 -5.41992 117.92 4.49219 C 117.92 16.3574 95.459 24.2676 66.6992 24.2676 C 37.9395 24.2676 15.4785 16.4551 15.4785 4.49219 C 15.4785 -5.41992 37.0605 -12.3047 53.1738 -12.6465 L 53.1738 -16.3086 C 34.6191 -16.0156 11.2793 -7.76367 11.2793 4.63867 C 11.2793 18.3105 34.3262 28.0273 66.6992 28.0273 Z"/>
  </g>
  <g id="Ultralight-L" transform="matrix(1 0 0 1 493.988 1556)">
   <path d="M 65.7227 8.88672 C 66.2598 8.88672 66.8457 6.93359 66.8457 2.09961 L 66.8457 -62.3047 C 75.0977 -62.8906 81.4453 -69.7266 81.4453 -78.0762 C 81.4453 -86.7676 74.5117 -93.8477 65.7227 -93.8477 C 56.9336 -93.8477 50 -86.7676 50 -78.0762 C 50 -69.7266 56.3477 -62.8906 64.5996 -62.3047 L 64.5996 2.09961 C 64.5996 6.83594 65.1855 8.88672 65.7227 8.88672 Z M 60.498 -78.0273 C 57.6172 -78.0273 55.0781 -80.4688 55.0781 -83.3984 C 55.0781 -86.3281 57.6172 -88.7695 60.498 -88.7695 C 63.3789 -88.7695 65.8691 -86.3281 65.8691 -83.3984 C 65.8691 -80.4688 63.3789 -78.0273 60.498 -78.0273 Z M 65.7227 26.7578 C 96.9238 26.7578 120.166 17.7734 120.166 4.15039 C 120.166 -7.32422 97.5098 -15.1367 78.7109 -15.4785 L 78.7109 -13.0371 C 95.7031 -12.6953 117.871 -5.76172 117.871 4.29688 C 117.871 16.3574 94.873 24.3652 65.7227 24.3652 C 36.6211 24.3652 13.5742 16.4551 13.5742 4.29688 C 13.5742 -5.76172 35.7422 -12.6953 52.7344 -13.0371 L 52.7344 -15.4785 C 33.9355 -15.1367 11.2793 -7.32422 11.2793 4.15039 C 11.2793 17.7734 34.5703 26.7578 65.7227 26.7578 Z"/>
  </g>
  <g id="Black-M" transform="matrix(1 0 0 1 2859.99 1126)">
   <path d="M 73.584 -1.80664 C 76.4648 -1.80664 81.4941 -11.5234 81.4941 -18.75 L 81.4941 -49.2676 C 91.0156 -52.5879 97.7539 -61.6211 97.7539 -72.168 C 97.7539 -85.5957 87.0605 -96.4844 73.584 -96.4844 C 60.2051 -96.4844 49.4629 -85.5957 49.4629 -72.168 C 49.4629 -61.6211 56.2012 -52.6367 65.625 -49.3164 L 65.625 -18.75 C 65.625 -11.5234 70.7031 -1.80664 73.584 -1.80664 Z M 66.8457 -70.7031 C 62.4512 -70.7031 58.5938 -74.5605 58.5938 -79.0039 C 58.5938 -83.4961 62.4512 -87.2559 66.8457 -87.2559 C 71.3867 -87.2559 75.0977 -83.4961 75.0977 -79.0039 C 75.0977 -74.5605 71.3867 -70.7031 66.8457 -70.7031 Z M 73.3887 23.6816 C 111.865 23.6816 138.086 12.0117 138.086 -5.95703 C 138.086 -20.166 119.434 -31.25 91.4062 -34.375 L 91.4062 -18.5059 C 109.082 -16.4062 121.191 -11.7188 121.191 -5.9082 C 121.191 2.53906 101.465 7.8125 73.3887 7.8125 C 45.3613 7.8125 25.6348 2.53906 25.6348 -5.9082 C 25.6348 -11.7188 37.7441 -16.4062 55.4199 -18.5059 L 55.4199 -34.375 C 27.3926 -31.25 8.74023 -20.166 8.74023 -5.95703 C 8.74023 12.0117 34.9609 23.6816 73.3887 23.6816 Z"/>
  </g>
  <g id="Heavy-M" transform="matrix(1 0 0 1 2567.6 1126)">
   <path d="M 69.2383 -1.26953 C 71.9238 -1.26953 76.3672 -10.5469 76.3672 -19.4824 L 76.3672 -50.0488 C 85.498 -53.0273 92.041 -61.6699 92.041 -71.7773 C 92.041 -84.4238 81.9336 -94.6777 69.2383 -94.6777 C 56.5918 -94.6777 46.4355 -84.4238 46.4355 -71.7773 C 46.4355 -61.7188 52.9785 -53.0762 62.0605 -50.0977 L 62.0605 -19.4824 C 62.0605 -10.5469 66.5527 -1.26953 69.2383 -1.26953 Z M 62.8418 -70.4102 C 58.6914 -70.4102 55.0293 -74.0723 55.0293 -78.2227 C 55.0293 -82.4707 58.6914 -86.0352 62.8418 -86.0352 C 67.1387 -86.0352 70.6055 -82.4707 70.6055 -78.2227 C 70.6055 -74.0723 67.1387 -70.4102 62.8418 -70.4102 Z M 69.0918 22.4121 C 105.42 22.4121 129.443 11.084 129.443 -5.12695 C 129.443 -19.043 110.352 -29.3945 85.791 -31.7871 L 85.791 -17.9688 C 101.514 -16.3574 114.209 -11.5723 114.209 -5.37109 C 114.209 3.02734 95.459 8.44727 69.0918 8.44727 C 42.6758 8.44727 23.9746 3.02734 23.9746 -5.37109 C 23.9746 -11.5723 36.6699 -16.3574 52.3926 -17.9688 L 52.3926 -31.7871 C 27.7832 -29.3945 8.74023 -19.043 8.74023 -5.12695 C 8.74023 11.084 32.7637 22.4121 69.0918 22.4121 Z"/>
  </g>
  <g id="Bold-M" transform="matrix(1 0 0 1 2275.72 1126)">
   <path d="M 64.3555 -0.634766 C 66.7969 -0.634766 70.5566 -9.42383 70.5566 -20.2637 L 70.5566 -50.9277 C 79.2969 -53.6133 85.5957 -61.7676 85.5957 -71.3379 C 85.5957 -83.0566 76.1719 -92.6758 64.3555 -92.6758 C 52.5879 -92.6758 43.1152 -83.0566 43.1152 -71.3379 C 43.1152 -61.7676 49.4141 -53.6621 58.1055 -50.9766 L 58.1055 -20.2637 C 58.1055 -9.47266 61.9141 -0.634766 64.3555 -0.634766 Z M 58.3496 -70.0684 C 54.4922 -70.0684 51.0742 -73.4863 51.0742 -77.3926 C 51.0742 -81.3477 54.4922 -84.668 58.3496 -84.668 C 62.3535 -84.668 65.625 -81.3477 65.625 -77.3926 C 65.625 -73.4863 62.3535 -70.0684 58.3496 -70.0684 Z M 64.2578 20.9961 C 98.1934 20.9961 119.775 10.1074 119.775 -4.24805 C 119.775 -17.7734 100.244 -27.2949 79.4922 -28.9062 L 79.4922 -17.3828 C 93.0664 -16.2598 106.396 -11.377 106.396 -4.78516 C 106.396 3.61328 88.7695 9.22852 64.2578 9.22852 C 39.6973 9.22852 22.1191 3.66211 22.1191 -4.78516 C 22.1191 -11.377 35.4492 -16.2598 49.0234 -17.3828 L 49.0234 -28.9062 C 28.2715 -27.2949 8.74023 -17.7734 8.74023 -4.24805 C 8.74023 10.1074 30.3223 20.9961 64.2578 20.9961 Z"/>
  </g>
  <g id="Semibold-M" transform="matrix(1 0 0 1 1982.33 1126)">
   <path d="M 60.9863 -0.244141 C 63.2324 -0.244141 66.6016 -8.64258 66.6016 -20.8008 L 66.6016 -51.5625 C 75.0488 -53.9551 81.1523 -61.8164 81.1523 -70.9961 C 81.1523 -82.1777 72.2168 -91.2598 60.9863 -91.2598 C 49.8047 -91.2598 40.8203 -82.1777 40.8203 -70.9961 C 40.8203 -61.8164 46.9238 -54.0039 55.3711 -51.5625 L 55.3711 -20.8008 C 55.3711 -8.69141 58.7402 -0.244141 60.9863 -0.244141 Z M 55.2734 -69.8242 C 51.6113 -69.8242 48.3398 -73.0957 48.3398 -76.8066 C 48.3398 -80.5664 51.6113 -83.6914 55.2734 -83.6914 C 59.082 -83.6914 62.1582 -80.5664 62.1582 -76.8066 C 62.1582 -73.0957 59.082 -69.8242 55.2734 -69.8242 Z M 60.9375 20.0684 C 93.2617 20.0684 113.135 9.42383 113.135 -3.61328 C 113.135 -16.9434 93.2617 -25.8301 75.1465 -26.9531 L 75.1465 -16.9922 C 87.207 -16.2109 100.977 -11.2793 100.977 -4.39453 C 100.977 4.00391 84.1797 9.7168 60.9375 9.7168 C 37.6465 9.7168 20.8496 4.05273 20.8496 -4.39453 C 20.8496 -11.2793 34.668 -16.2109 46.6797 -16.9922 L 46.6797 -26.9531 C 28.6133 -25.8301 8.74023 -16.9434 8.74023 -3.61328 C 8.74023 9.42383 28.6133 20.0684 60.9375 20.0684 Z"/>
  </g>
  <g id="Medium-M" transform="matrix(1 0 0 1 1688.16 1126)">
   <path d="M 58.4473 0.0976562 C 60.5957 0.0976562 63.5742 -8.05664 63.5742 -21.2402 L 63.5742 -52.002 C 71.8262 -54.248 77.832 -61.8164 77.832 -70.752 C 77.832 -81.4941 69.1895 -90.2344 58.4473 -90.2344 C 47.7051 -90.2344 39.0625 -81.4941 39.0625 -70.752 C 39.0625 -61.8652 45.0684 -54.2969 53.2715 -52.0508 L 53.2715 -21.2402 C 53.2715 -8.10547 56.2988 0.0976562 58.4473 0.0976562 Z M 52.9297 -69.6777 C 49.4141 -69.6777 46.2891 -72.7539 46.2891 -76.3672 C 46.2891 -79.9316 49.4141 -82.959 52.9297 -82.959 C 56.543 -82.959 59.5215 -79.9316 59.5215 -76.3672 C 59.5215 -72.7539 56.543 -69.6777 52.9297 -69.6777 Z M 58.3984 19.3359 C 89.4531 19.3359 108.057 8.88672 108.057 -3.125 C 108.057 -16.2598 87.9395 -24.7559 71.875 -25.4395 L 71.875 -16.6992 C 82.8125 -16.2109 96.9238 -11.1816 96.9238 -4.10156 C 96.9238 4.29688 80.7129 10.1074 58.3984 10.1074 C 36.084 10.1074 19.9219 4.3457 19.9219 -4.10156 C 19.9219 -11.1816 34.0332 -16.2109 44.9219 -16.6992 L 44.9219 -25.4395 C 28.8574 -24.7559 8.74023 -16.2598 8.74023 -3.125 C 8.74023 8.88672 27.3438 19.3359 58.3984 19.3359 Z"/>
  </g>
  <g id="Regular-M" transform="matrix(1 0 0 1 1394.74 1126)">
   <path d="M 55.127 0.488281 C 57.0801 0.488281 59.6191 -7.32422 59.6191 -21.7773 L 59.6191 -52.6367 C 67.5781 -54.6387 73.4375 -61.8652 73.4375 -70.459 C 73.4375 -80.5664 65.2832 -88.8672 55.127 -88.8672 C 44.9219 -88.8672 36.7676 -80.5664 36.7676 -70.459 C 36.7676 -61.9141 42.627 -54.6875 50.5859 -52.6367 L 50.5859 -21.7773 C 50.5859 -7.37305 53.125 0.488281 55.127 0.488281 Z M 49.8535 -69.4336 C 46.5332 -69.4336 43.6035 -72.3633 43.6035 -75.7812 C 43.6035 -79.1504 46.5332 -82.0312 49.8535 -82.0312 C 53.3203 -82.0312 56.1523 -79.1504 56.1523 -75.7812 C 56.1523 -72.3633 53.3203 -69.4336 49.8535 -69.4336 Z M 55.127 18.3594 C 84.5703 18.3594 101.465 8.20312 101.465 -2.53906 C 101.465 -15.4297 81.0059 -23.291 67.5781 -23.4375 L 67.5781 -16.3086 C 77.002 -16.1621 91.6016 -11.0352 91.6016 -3.71094 C 91.6016 4.6875 76.123 10.6445 55.127 10.6445 C 34.0332 10.6445 18.6523 4.78516 18.6523 -3.71094 C 18.6523 -11.0352 33.2031 -16.1621 42.627 -16.3086 L 42.627 -23.4375 C 29.1992 -23.291 8.74023 -15.4297 8.74023 -2.53906 C 8.74023 8.20312 25.6836 18.3594 55.127 18.3594 Z"/>
  </g>
  <g id="Light-M" transform="matrix(1 0 0 1 1099.3 1126)">
   <path d="M 53.8086 0 C 55.3223 0 57.1777 -5.85938 57.1777 -16.9434 L 57.1777 -53.7109 C 64.6973 -55.2734 70.2637 -61.9141 70.2637 -69.8242 C 70.2637 -78.9062 62.9395 -86.3281 53.8086 -86.3281 C 44.6777 -86.3281 37.4023 -78.9062 37.4023 -69.8242 C 37.4023 -61.9141 42.9199 -55.2734 50.3906 -53.7109 L 50.3906 -16.9434 C 50.3906 -5.9082 52.3438 0 53.8086 0 Z M 48.9258 -69.1406 C 45.9473 -69.1406 43.3105 -71.7285 43.3105 -74.7559 C 43.3105 -77.832 45.9473 -80.3711 48.9258 -80.3711 C 52.002 -80.3711 54.541 -77.832 54.541 -74.7559 C 54.541 -71.7285 52.002 -69.1406 48.9258 -69.1406 Z M 53.8086 16.6504 C 81.6406 16.6504 98.9258 7.4707 98.9258 -3.22266 C 98.9258 -14.8438 79.3457 -22.168 65.5762 -22.3633 L 65.5762 -16.8457 C 76.123 -16.6504 91.5039 -11.4746 91.5039 -4.00391 C 91.5039 4.73633 75.3418 10.7422 53.8086 10.7422 C 32.2754 10.7422 16.1133 4.78516 16.1133 -4.00391 C 16.1133 -11.4746 31.4941 -16.6504 42.0898 -16.8457 L 42.0898 -22.3633 C 28.3203 -22.168 8.74023 -14.8438 8.74023 -3.22266 C 8.74023 7.4707 26.0254 16.6504 53.8086 16.6504 Z"/>
  </g>
  <g id="Thin-M" transform="matrix(1 0 0 1 804.298 1126)">
   <path d="M 52.0996 -0.634766 C 52.9785 -0.634766 54.0039 -3.90625 54.0039 -10.6445 L 54.0039 -55.1758 C 60.8398 -56.0547 66.0156 -61.9629 66.0156 -68.9941 C 66.0156 -76.709 59.8633 -82.959 52.0996 -82.959 C 44.3359 -82.959 38.2324 -76.709 38.2324 -68.9941 C 38.2324 -61.9629 43.3594 -56.1035 50.1953 -55.1758 L 50.1953 -10.6445 C 50.1953 -3.95508 51.2695 -0.634766 52.0996 -0.634766 Z M 47.7051 -68.7012 C 45.166 -68.7012 42.9688 -70.8984 42.9688 -73.4375 C 42.9688 -76.0254 45.166 -78.2227 47.7051 -78.2227 C 50.293 -78.2227 52.4902 -76.0254 52.4902 -73.4375 C 52.4902 -70.8984 50.293 -68.7012 47.7051 -68.7012 Z M 52.0996 14.3555 C 77.7344 14.3555 95.5078 6.49414 95.5078 -4.10156 C 95.5078 -14.1113 77.0996 -20.7031 62.8418 -20.8984 L 62.8418 -17.5293 C 75 -17.334 91.4062 -12.0117 91.4062 -4.3457 C 91.4062 4.73633 74.2676 10.8398 52.0996 10.8398 C 29.9805 10.8398 12.793 4.78516 12.793 -4.3457 C 12.793 -12.0117 29.248 -17.334 41.3574 -17.5293 L 41.3574 -20.8984 C 27.0996 -20.7031 8.74023 -14.1113 8.74023 -4.10156 C 8.74023 6.49414 26.4648 14.3555 52.0996 14.3555 Z"/>
  </g>
  <g id="Ultralight-M" transform="matrix(1 0 0 1 508.466 1126)">
   <path d="M 51.2207 -0.927734 C 51.7578 -0.927734 52.3438 -2.88086 52.3438 -7.37305 L 52.3438 -55.957 C 58.8867 -56.4941 63.8672 -61.9629 63.8672 -68.5547 C 63.8672 -75.5371 58.3008 -81.25 51.2207 -81.25 C 44.1895 -81.25 38.623 -75.5371 38.623 -68.5547 C 38.623 -61.9629 43.6035 -56.4941 50.0977 -55.957 L 50.0977 -7.37305 C 50.0977 -2.97852 50.6836 -0.927734 51.2207 -0.927734 Z M 47.0703 -68.457 C 44.7754 -68.457 42.7734 -70.459 42.7734 -72.8027 C 42.7734 -75.1465 44.7754 -77.0996 47.0703 -77.0996 C 49.4141 -77.0996 51.416 -75.1465 51.416 -72.8027 C 51.416 -70.459 49.4141 -68.457 47.0703 -68.457 Z M 51.2207 13.1836 C 75.7812 13.1836 93.75 6.00586 93.75 -4.58984 C 93.75 -13.7207 75.9766 -19.9219 61.4746 -20.166 L 61.4746 -17.9199 C 74.3652 -17.627 91.3574 -12.3047 91.3574 -4.54102 C 91.3574 4.73633 73.6816 10.9375 51.2207 10.9375 C 28.7598 10.9375 11.084 4.83398 11.084 -4.54102 C 11.084 -12.3047 28.0762 -17.627 41.0156 -17.9199 L 41.0156 -20.166 C 26.5137 -19.9219 8.74023 -13.7207 8.74023 -4.58984 C 8.74023 6.00586 26.709 13.1836 51.2207 13.1836 Z"/>
  </g>
  <g id="Black-S" transform="matrix(1 0 0 1 2876.22 696)">
   <path d="M 57.3242 -8.98438 C 59.5703 -8.98438 63.4766 -16.6016 63.4766 -22.4609 L 63.4766 -46.2891 C 70.8984 -48.8281 76.1719 -55.9082 76.1719 -64.1602 C 76.1719 -74.6094 67.8223 -83.1055 57.3242 -83.1055 C 46.875 -83.1055 38.4766 -74.6094 38.4766 -64.1602 C 38.4766 -55.9082 43.75 -48.877 51.123 -46.2891 L 51.123 -22.4609 C 51.123 -16.6016 55.0781 -8.98438 57.3242 -8.98438 Z M 52.0508 -62.9883 C 48.6328 -62.9883 45.6055 -66.0156 45.6055 -69.4824 C 45.6055 -72.998 48.6328 -75.9277 52.0508 -75.9277 C 55.6152 -75.9277 58.4961 -72.998 58.4961 -69.4824 C 58.4961 -66.0156 55.6152 -62.9883 52.0508 -62.9883 Z M 57.1777 10.8398 C 87.1582 10.8398 107.52 1.70898 107.52 -12.207 C 107.52 -23.3398 92.8711 -31.9824 71.1914 -34.375 L 71.1914 -22.0703 C 84.8633 -20.459 94.3848 -16.7969 94.3848 -12.207 C 94.3848 -5.61523 79.0039 -1.46484 57.1777 -1.46484 C 35.3516 -1.46484 19.9707 -5.61523 19.9707 -12.207 C 19.9707 -16.7969 29.4922 -20.459 43.1641 -22.0703 L 43.1641 -34.375 C 21.4844 -31.9824 6.83594 -23.3398 6.83594 -12.207 C 6.83594 1.70898 27.1973 10.8398 57.1777 10.8398 Z"/>
  </g>
  <g id="Heavy-S" transform="matrix(1 0 0 1 2582.66 696)">
   <path d="M 54.1504 -8.49609 C 56.25 -8.49609 59.8145 -16.0156 59.8145 -23.5352 L 59.8145 -46.7773 C 66.9922 -49.1699 72.1191 -55.957 72.1191 -63.916 C 72.1191 -73.877 64.1602 -82.0312 54.1504 -82.0312 C 44.1406 -82.0312 36.1328 -73.877 36.1328 -63.916 C 36.1328 -55.957 41.2598 -49.1699 48.4375 -46.7773 L 48.4375 -23.5352 C 48.4375 -16.0156 52.002 -8.49609 54.1504 -8.49609 Z M 49.0723 -62.793 C 45.8008 -62.793 42.9199 -65.6738 42.9199 -68.9941 C 42.9199 -72.3633 45.8008 -75.1465 49.0723 -75.1465 C 52.4902 -75.1465 55.2246 -72.3633 55.2246 -68.9941 C 55.2246 -65.6738 52.4902 -62.793 49.0723 -62.793 Z M 54.0039 10.0586 C 82.5684 10.0586 101.221 1.12305 101.221 -11.5234 C 101.221 -22.5586 86.1328 -30.6641 67.1387 -32.5195 L 67.1387 -21.6309 C 79.1504 -20.3613 89.0625 -16.6504 89.0625 -11.7676 C 89.0625 -5.22461 74.5117 -0.976562 54.0039 -0.976562 C 33.4961 -0.976562 18.9941 -5.22461 18.9941 -11.7676 C 18.9941 -16.6504 28.8574 -20.3613 40.918 -21.6309 L 40.918 -32.5195 C 21.9238 -30.6641 6.83594 -22.5586 6.83594 -11.5234 C 6.83594 1.12305 25.4883 10.0586 54.0039 10.0586 Z"/>
  </g>
  <g id="Bold-S" transform="matrix(1 0 0 1 2289.49 696)">
   <path d="M 50.5371 -8.00781 C 52.5879 -8.00781 55.6641 -15.332 55.6641 -24.707 L 55.6641 -47.3145 C 62.6465 -49.5117 67.627 -56.0059 67.627 -63.6719 C 67.627 -73.0957 60.0586 -80.7617 50.5371 -80.7617 C 41.1133 -80.7617 33.4961 -73.0957 33.4961 -63.6719 C 33.4961 -56.0059 38.4766 -49.5117 45.4102 -47.3145 L 45.4102 -24.707 C 45.4102 -15.3809 48.5352 -8.00781 50.5371 -8.00781 Z M 45.8008 -62.5977 C 42.6758 -62.5977 39.9414 -65.332 39.9414 -68.457 C 39.9414 -71.6309 42.6758 -74.3164 45.8008 -74.3164 C 48.9746 -74.3164 51.6113 -71.6309 51.6113 -68.457 C 51.6113 -65.332 48.9746 -62.5977 45.8008 -62.5977 Z M 50.4883 9.22852 C 77.3926 9.22852 94.1406 0.439453 94.1406 -10.7422 C 94.1406 -21.6797 78.5645 -29.1992 62.5488 -30.4688 L 62.5488 -21.0938 C 72.8027 -20.2637 83.0566 -16.4551 83.0566 -11.2793 C 83.0566 -4.78516 69.5312 -0.390625 50.4883 -0.390625 C 31.4453 -0.390625 17.9199 -4.73633 17.9199 -11.2793 C 17.9199 -16.4551 28.1738 -20.2637 38.4277 -21.0938 L 38.4277 -30.4688 C 22.4121 -29.1992 6.83594 -21.6797 6.83594 -10.7422 C 6.83594 0.439453 23.584 9.22852 50.4883 9.22852 Z"/>
  </g>
  <g id="Semibold-S" transform="matrix(1 0 0 1 1995.22 696)">
   <path d="M 48.0957 -7.61719 C 50.0488 -7.61719 52.832 -14.8926 52.832 -25.5371 L 52.832 -47.7051 C 59.6191 -49.707 64.502 -56.0547 64.502 -63.4766 C 64.502 -72.5586 57.2266 -79.9316 48.0957 -79.9316 C 39.0137 -79.9316 31.6895 -72.5586 31.6895 -63.4766 C 31.6895 -56.0547 36.5723 -49.7559 43.3105 -47.7051 L 43.3105 -25.5371 C 43.3105 -14.8926 46.1914 -7.61719 48.0957 -7.61719 Z M 43.5059 -62.4512 C 40.5273 -62.4512 37.8906 -65.0879 37.8906 -68.1152 C 37.8906 -71.1426 40.5273 -73.7305 43.5059 -73.7305 C 46.582 -73.7305 49.1211 -71.1426 49.1211 -68.1152 C 49.1211 -65.0879 46.582 -62.4512 43.5059 -62.4512 Z M 48.0469 8.64258 C 73.877 8.64258 89.2578 -0.0488281 89.2578 -10.2051 C 89.2578 -21.0449 73.3887 -28.2227 59.4238 -29.0527 L 59.4238 -20.752 C 68.4082 -20.166 78.9551 -16.3086 78.9551 -10.9863 C 78.9551 -4.49219 66.0645 0 48.0469 0 C 29.9805 0 17.1387 -4.44336 17.1387 -10.9863 C 17.1387 -16.3086 27.6855 -20.166 36.6699 -20.752 L 36.6699 -29.0527 C 22.7051 -28.2227 6.83594 -21.0449 6.83594 -10.2051 C 6.83594 -0.0488281 22.2168 8.64258 48.0469 8.64258 Z"/>
  </g>
  <g id="Medium-S" transform="matrix(1 0 0 1 1700.36 696)">
   <path d="M 46.2402 -7.37305 C 48.0957 -7.37305 50.6836 -14.5508 50.6836 -26.1719 L 50.6836 -47.998 C 57.3242 -49.9023 62.1582 -56.0547 62.1582 -63.3301 C 62.1582 -72.1191 55.0781 -79.2969 46.2402 -79.2969 C 37.4023 -79.2969 30.3223 -72.1191 30.3223 -63.3301 C 30.3223 -56.1035 35.1074 -49.9512 41.748 -47.998 L 41.748 -26.1719 C 41.748 -14.5508 44.3848 -7.37305 46.2402 -7.37305 Z M 41.748 -62.3535 C 38.8672 -62.3535 36.3281 -64.8926 36.3281 -67.8223 C 36.3281 -70.8008 38.8672 -73.291 41.748 -73.291 C 44.7754 -73.291 47.2168 -70.8008 47.2168 -67.8223 C 47.2168 -64.8926 44.7754 -62.3535 41.748 -62.3535 Z M 46.1914 8.1543 C 71.1914 8.1543 85.5469 -0.390625 85.5469 -9.81445 C 85.5469 -20.6055 69.4336 -27.4414 57.0312 -27.9297 L 57.0312 -20.5078 C 65.0879 -20.1172 75.8301 -16.2109 75.8301 -10.7422 C 75.8301 -4.24805 63.4277 0.292969 46.1914 0.292969 C 28.9062 0.292969 16.5527 -4.19922 16.5527 -10.7422 C 16.5527 -16.2109 27.2949 -20.1172 35.3516 -20.5078 L 35.3516 -27.9297 C 22.9492 -27.4414 6.83594 -20.6055 6.83594 -9.81445 C 6.83594 -0.390625 21.2402 8.1543 46.1914 8.1543 Z"/>
  </g>
  <g id="Regular-S" transform="matrix(1 0 0 1 1406.05 696)">
   <path d="M 43.7988 -7.03125 C 45.5566 -7.03125 47.8516 -14.0625 47.8516 -27.002 L 47.8516 -48.3398 C 54.3457 -50.1465 59.082 -56.1035 59.082 -63.1348 C 59.082 -71.582 52.2949 -78.4668 43.7988 -78.4668 C 35.3027 -78.4668 28.5156 -71.582 28.5156 -63.1348 C 28.5156 -56.1035 33.2031 -50.1953 39.6973 -48.3887 L 39.6973 -27.002 C 39.6973 -14.1113 41.9922 -7.03125 43.7988 -7.03125 Z M 39.502 -62.207 C 36.7188 -62.207 34.2773 -64.6484 34.2773 -67.4805 C 34.2773 -70.3125 36.7188 -72.7051 39.502 -72.7051 C 42.3828 -72.7051 44.7266 -70.3125 44.7266 -67.4805 C 44.7266 -64.6484 42.3828 -62.207 39.502 -62.207 Z M 43.7988 7.61719 C 67.6758 7.61719 80.7617 -0.830078 80.7617 -9.27734 C 80.7617 -19.9707 64.3066 -26.416 53.9551 -26.5625 L 53.9551 -20.166 C 60.7422 -20.0684 71.7773 -16.0645 71.7773 -10.4004 C 71.7773 -3.95508 60.0098 0.634766 43.7988 0.634766 C 27.4902 0.634766 15.8203 -3.90625 15.8203 -10.4004 C 15.8203 -16.0645 26.8555 -20.0684 33.6426 -20.166 L 33.6426 -26.5625 C 23.291 -26.416 6.83594 -19.9707 6.83594 -9.27734 C 6.83594 -0.830078 19.9219 7.61719 43.7988 7.61719 Z"/>
  </g>
  <g id="Light-S" transform="matrix(1 0 0 1 1110.48 696)">
   <path d="M 42.627 -7.42188 C 43.9941 -7.42188 45.7031 -12.793 45.7031 -22.7539 L 45.7031 -49.2676 C 51.7578 -50.6836 56.25 -56.1035 56.25 -62.5977 C 56.25 -70.0684 50.1953 -76.2207 42.627 -76.2207 C 35.1074 -76.2207 29.0527 -70.0684 29.0527 -62.5977 C 29.0527 -56.1523 33.4961 -50.6836 39.5508 -49.2676 L 39.5508 -22.7539 C 39.5508 -12.8418 41.3086 -7.42188 42.627 -7.42188 Z M 38.6719 -61.9141 C 36.2305 -61.9141 34.0332 -64.0625 34.0332 -66.6016 C 34.0332 -69.0918 36.2305 -71.2402 38.6719 -71.2402 C 41.2109 -71.2402 43.3105 -69.0918 43.3105 -66.6016 C 43.3105 -64.0625 41.2109 -61.9141 38.6719 -61.9141 Z M 42.627 6.05469 C 65.0879 6.05469 78.4668 -1.51367 78.4668 -9.86328 C 78.4668 -19.4824 62.793 -25.4395 52.1484 -25.5859 L 52.1484 -20.6055 C 59.9609 -20.5078 71.7285 -16.4551 71.7285 -10.6445 C 71.7285 -3.95508 59.3262 0.732422 42.627 0.732422 C 25.9766 0.732422 13.5742 -3.90625 13.5742 -10.6445 C 13.5742 -16.4551 25.3418 -20.5078 33.1543 -20.6055 L 33.1543 -25.5859 C 22.5098 -25.4395 6.83594 -19.4824 6.83594 -9.86328 C 6.83594 -1.51367 20.2148 6.05469 42.627 6.05469 Z"/>
  </g>
  <g id="Thin-S" transform="matrix(1 0 0 1 815.285 696)">
   <path d="M 41.1621 -8.00781 C 41.9434 -8.00781 42.9199 -11.0352 42.9199 -17.1387 L 42.9199 -50.5859 C 48.3887 -51.416 52.4902 -56.1523 52.4902 -61.8652 C 52.4902 -68.1152 47.4609 -73.2422 41.1621 -73.2422 C 34.8145 -73.2422 29.7852 -68.1152 29.7852 -61.8652 C 29.7852 -56.1523 33.8867 -51.416 39.3555 -50.5859 L 39.3555 -17.1387 C 39.3555 -11.084 40.332 -8.00781 41.1621 -8.00781 Z M 37.5977 -61.5234 C 35.5469 -61.5234 33.6914 -63.3301 33.6914 -65.4297 C 33.6914 -67.5293 35.5469 -69.3359 37.5977 -69.3359 C 39.7461 -69.3359 41.5039 -67.5293 41.5039 -65.4297 C 41.5039 -63.3301 39.7461 -61.5234 37.5977 -61.5234 Z M 41.1621 4.05273 C 61.6211 4.05273 75.4395 -2.34375 75.4395 -10.6934 C 75.4395 -18.8477 60.8398 -24.1211 49.7559 -24.3164 L 49.7559 -21.2402 C 58.9355 -21.0449 71.6309 -16.9434 71.6309 -10.9863 C 71.6309 -3.90625 58.3496 0.830078 41.1621 0.830078 C 23.9258 0.830078 10.6445 -3.85742 10.6445 -10.9863 C 10.6445 -16.9434 23.3398 -21.0449 32.5195 -21.2402 L 32.5195 -24.3164 C 21.4844 -24.1211 6.83594 -18.8477 6.83594 -10.6934 C 6.83594 -2.34375 20.6543 4.05273 41.1621 4.05273 Z"/>
  </g>
  <g id="Ultralight-S" transform="matrix(1 0 0 1 519.355 696)">
   <path d="M 40.3809 -8.30078 C 40.8691 -8.30078 41.4551 -10.1562 41.4551 -14.3066 L 41.4551 -51.2695 C 46.6309 -51.8066 50.5859 -56.1523 50.5859 -61.4746 C 50.5859 -67.1387 46.0938 -71.7285 40.3809 -71.7285 C 34.668 -71.7285 30.127 -67.1387 30.127 -61.4746 C 30.127 -56.1523 34.082 -51.8066 39.2578 -51.2695 L 39.2578 -14.3066 C 39.2578 -10.2051 39.8438 -8.30078 40.3809 -8.30078 Z M 37.0605 -61.3281 C 35.2051 -61.3281 33.5449 -62.9395 33.5449 -64.8438 C 33.5449 -66.748 35.2051 -68.3594 37.0605 -68.3594 C 38.9648 -68.3594 40.5273 -66.748 40.5273 -64.8438 C 40.5273 -62.9395 38.9648 -61.3281 37.0605 -61.3281 Z M 40.3809 3.02734 C 59.8633 3.02734 73.877 -2.7832 73.877 -11.084 C 73.877 -18.5059 59.8145 -23.4375 48.5352 -23.6328 L 48.5352 -21.582 C 58.3984 -21.3867 71.582 -17.1875 71.582 -11.1328 C 71.582 -3.90625 57.8613 0.927734 40.3809 0.927734 C 22.8516 0.927734 9.13086 -3.85742 9.13086 -11.1328 C 9.13086 -17.1875 22.3145 -21.3867 32.2266 -21.582 L 32.2266 -23.6328 C 20.9473 -23.4375 6.83594 -18.5059 6.83594 -11.084 C 6.83594 -2.7832 20.8496 3.02734 40.3809 3.02734 Z"/>
  </g>
 </g>
</svg>
