<svg data-v-423bf9ae="" xmlns="http://www.w3.org/2000/svg" viewBox="0 0 557 92" class="iconLeftSlogan"><!----><!----><!----><g data-v-423bf9ae="" id="589b9888-6277-48b3-b66c-105f55fefdc9" fill="black" transform="matrix(4.494381894047144,0,0,4.494381894047144,107.41234146156526,-16.1797739131149)"><path d="M0.76 13.78L1.99 13.78L3.36 11.27C3.60 10.82 3.84 10.36 4.10 9.80L4.16 9.80C4.47 10.36 4.72 10.84 4.97 11.28L6.36 13.78L7.64 13.78L4.90 9.06L7.46 4.54L6.23 4.54L4.97 6.90C4.75 7.32 4.56 7.71 4.31 8.25L4.26 8.25C3.96 7.71 3.75 7.32 3.51 6.90L2.23 4.54L0.94 4.54L3.50 9.00ZM13.24 13.96C14.25 13.96 15.20 13.54 15.95 12.84L15.44 12.10C14.87 12.60 14.17 13.01 13.33 13.01C11.76 13.01 10.71 11.89 10.71 10.22C10.71 8.55 11.79 7.42 13.36 7.42C14.07 7.42 14.66 7.73 15.22 8.26L15.79 7.52C15.23 6.94 14.42 6.47 13.31 6.47C11.26 6.47 9.52 7.83 9.52 10.22C9.52 12.59 11.12 13.96 13.24 13.96ZM18.10 13.78L19.25 13.78L19.25 8.79C20.05 7.90 20.59 7.46 21.41 7.46C22.53 7.46 22.97 8.12 22.97 9.49L22.97 13.78L24.12 13.78L24.12 9.34C24.12 7.46 23.38 6.47 21.77 6.47C20.71 6.47 19.92 7.07 19.19 7.88L19.25 6.17L19.25 3.60L18.10 3.60ZM28.64 13.96C29.61 13.96 30.58 13.41 31.33 12.80L31.37 12.80L31.47 13.78L32.41 13.78L32.41 9.38C32.41 7.63 31.51 6.47 29.65 6.47C28.46 6.47 27.45 7.03 26.91 7.49L27.36 8.29C27.85 7.87 28.57 7.42 29.46 7.42C30.77 7.42 31.23 8.27 31.26 9.25C27.75 9.56 26.33 10.33 26.33 11.94C26.33 13.22 27.37 13.96 28.64 13.96ZM28.95 13.03C28.17 13.03 27.45 12.68 27.45 11.86C27.45 10.89 28.35 10.28 31.26 10.02L31.26 11.94C30.49 12.64 29.72 13.03 28.95 13.03ZM34.90 13.78L36.05 13.78L36.05 8.79C36.85 7.90 37.39 7.46 38.21 7.46C39.33 7.46 39.77 8.12 39.77 9.49L39.77 13.78L40.92 13.78L40.92 9.34C40.92 7.46 40.18 6.47 38.57 6.47C37.51 6.47 36.72 7.07 36.01 7.88L35.95 7.88L35.85 6.64L34.90 6.64ZM45.92 16.95C47.94 16.95 49.10 15.85 49.10 13.78L49.10 6.64L48.17 6.64L48.08 7.43L48.03 7.43C47.43 6.83 46.75 6.47 45.95 6.47C44.30 6.47 42.84 7.87 42.84 10.11C42.84 12.36 44.03 13.71 45.78 13.71C46.62 13.71 47.46 13.23 47.99 12.64L47.98 13.78C47.96 15.44 47.22 16.03 45.92 16.03C45.23 16.03 44.45 15.83 43.75 14.94L43.19 15.64C44.07 16.69 45.04 16.95 45.92 16.95ZM46.03 12.75C44.79 12.75 44.02 11.72 44.02 10.09C44.02 8.54 45.00 7.43 46.14 7.43C46.75 7.43 47.33 7.67 47.95 8.29L47.95 11.66C47.33 12.38 46.69 12.75 46.03 12.75ZM55.02 13.96C56.11 13.96 56.97 13.57 57.64 13.12L57.23 12.35C56.60 12.77 55.96 13.02 55.16 13.02C53.68 13.02 52.61 12.03 52.56 10.49L57.88 10.49C57.90 10.30 57.92 10.05 57.92 9.81C57.92 7.80 56.77 6.47 54.82 6.47C53.06 6.47 51.37 7.90 51.37 10.22C51.37 12.56 53.00 13.96 55.02 13.96ZM52.54 9.65C52.72 8.22 53.73 7.38 54.84 7.38C56.10 7.38 56.85 8.19 56.85 9.65ZM60.84 13.78L61.99 13.78L61.99 9.56C62.80 8.06 63.77 7.50 64.79 7.50C65.32 7.50 65.58 7.57 66.05 7.76L66.32 6.76C65.90 6.54 65.48 6.47 64.97 6.47C63.71 6.47 62.65 7.20 61.94 8.34L61.89 8.34L61.80 6.64L60.84 6.64ZM70.64 13.96C71.61 13.96 72.58 13.41 73.33 12.80L73.37 12.80L73.47 13.78L74.41 13.78L74.41 9.38C74.41 7.63 73.51 6.47 71.65 6.47C70.46 6.47 69.45 7.03 68.91 7.49L69.36 8.29C69.85 7.87 70.57 7.42 71.46 7.42C72.77 7.42 73.23 8.27 73.26 9.25C69.75 9.56 68.33 10.33 68.33 11.94C68.33 13.22 69.37 13.96 70.64 13.96ZM70.95 13.03C70.17 13.03 69.45 12.68 69.45 11.86C69.45 10.89 70.35 10.28 73.26 10.02L73.26 11.94C72.49 12.64 71.72 13.03 70.95 13.03ZM81.10 13.96C81.84 13.96 82.63 13.76 83.24 13.52L82.99 12.68C82.52 12.88 82.00 13.01 81.35 13.01C80.04 13.01 79.63 12.32 79.63 11.03L79.63 7.57L82.98 7.57L82.98 6.64L79.63 6.64L79.63 3.84L78.53 4.54L78.53 6.64L76.57 6.64L76.57 7.57L78.48 7.57L78.48 11.02C78.48 12.77 79.13 13.96 81.10 13.96ZM88.20 13.96C89.99 13.96 91.56 12.59 91.56 10.22C91.56 7.83 89.99 6.47 88.20 6.47C86.41 6.47 84.84 7.83 84.84 10.22C84.84 12.59 86.41 13.96 88.20 13.96ZM88.20 13.01C86.90 13.01 86.03 11.89 86.03 10.22C86.03 8.55 86.90 7.42 88.20 7.42C89.50 7.42 90.37 8.55 90.37 10.22C90.37 11.89 89.50 13.01 88.20 13.01ZM94.44 13.78L95.59 13.78L95.59 9.56C96.40 8.06 97.37 7.50 98.39 7.50C98.92 7.50 99.18 7.57 99.65 7.76L99.92 6.76C99.50 6.54 99.08 6.47 98.57 6.47C97.31 6.47 96.25 7.20 95.54 8.34L95.49 8.34L95.40 6.64L94.44 6.64Z"></path></g><!----><g data-v-423bf9ae="" id="e11a3e14-b4b7-485e-992e-61c745aeba6a" transform="matrix(1.009193844265408,0,0,1.009193844265408,-4.460009823273545,-3.8734152928930925)" stroke="none" fill="black"><path fill-rule="evenodd" clip-rule="evenodd" d="M28.771 17.173c5.02 1.652 10.008 3.406 15.067 4.925 5.057 1.516 10.115 3.476 15.299 4.009 6.457.665 12.558-4.046 14.61-10.262 1.062-3.222 2.696-2.23 4.53-1.064 7.34 4.669 11.965 11.562 14.427 19.615 1.563 5.117 1.782 10.681 2.272 16.075.271 2.974-1.71 4.844-4.278 6.18-14.588 7.593-27.94 4.734-41.068-4.049-7.153-4.785-14.787-9.067-22.696-12.418-4.031-1.708-9.145-1.073-13.771-1.102-5.128-.03-6.927-1.898-4.908-6.463 4.152-9.393 8.605-14.57 20.516-15.446z"></path><path fill-rule="evenodd" clip-rule="evenodd" d="M5.006 54.279c-.057-7.91.199-7.67 5.821-8.992 11.541-2.715 20.914 1.757 29.956 7.999 6.697 4.621 13.166 9.583 21.258 11.819 8.952 2.476 17.654 2.253 26.341-1.026 1.229-.463 2.712-.253 4.077-.354-.207 1.363-.17 2.824-.66 4.075-5.368 13.711-21.246 16.426-34.401 10.659-3.896-1.708-7.819-3.488-11.901-4.616-8.061-2.228-15.919 1.389-19.252 8.956-1.49 3.38-2.824 3.047-5.266 1.246C10.23 76.111 6.221 64.851 5.006 54.279z"></path><path fill-rule="evenodd" clip-rule="evenodd" d="M72.867 89.96c-5.53 1.722-10.052 3.428-14.719 4.514-7.909 1.84-15.677.96-23.056-2.482-4.632-2.162-5.158-7.041-1.304-10.342 3.779-3.238 8.233-3.479 12.464-1.9 7.835 2.926 15.173 7.26 23.797 7.833.587.038 1.121.91 2.818 2.377zM28.966 9.381c4.194-1.357 8.302-3.201 12.601-3.964 7.153-1.27 14.361-1.303 21.349 1.462 3.164 1.251 5.53 3.192 5.36 6.673-.173 3.499-2.896 5.705-6.016 6.109-3.469.449-7.273.376-10.602-.593-7.012-2.042-13.809-4.815-20.69-7.3-.586-.213-1.14-.517-1.71-.778-.096-.537-.195-1.073-.292-1.609z"></path></g><!----><g data-v-423bf9ae="" id="571c774c-bb89-4bc5-b21b-d7d39cb860d2" fill="black" transform="matrix(1.0217232593061694,0,0,1.0217232593061694,109.47940048963599,54.19661319096447)"><path d="M1.32 15.68L1.32 5.88L7.25 5.88L7.25 6.97L2.49 6.97L2.49 10.22L7.17 10.22L7.17 11.31L2.49 11.31L2.49 14.59L7.34 14.59L7.34 15.68L1.32 15.68ZM19.98 11.62L21.73 8.74L22.97 8.74L20.93 12.04L20.93 12.21L23.14 15.68L21.87 15.68L19.98 12.63L19.73 12.63L17.84 15.68L16.56 15.68L18.77 12.21L18.77 12.04L16.73 8.74L17.98 8.74L19.73 11.62L19.98 11.62ZM37.76 12.96L38.85 13.22L38.85 13.22Q38.74 13.79 38.46 14.28L38.46 14.28L38.46 14.28Q38.19 14.77 37.77 15.13L37.77 15.13L37.77 15.13Q37.35 15.48 36.79 15.68L36.79 15.68L36.79 15.68Q36.23 15.88 35.55 15.88L35.55 15.88L35.55 15.88Q34.82 15.88 34.17 15.64L34.17 15.64L34.17 15.64Q33.52 15.40 33.03 14.95L33.03 14.95L33.03 14.95Q32.54 14.49 32.25 13.83L32.25 13.83L32.25 13.83Q31.96 13.17 31.96 12.32L31.96 12.32L31.96 12.15L31.96 12.15Q31.96 11.31 32.25 10.64L32.25 10.64L32.25 10.64Q32.54 9.97 33.03 9.51L33.03 9.51L33.03 9.51Q33.52 9.04 34.17 8.79L34.17 8.79L34.17 8.79Q34.82 8.54 35.55 8.54L35.55 8.54L35.55 8.54Q36.20 8.54 36.76 8.74L36.76 8.74L36.76 8.74Q37.32 8.93 37.75 9.29L37.75 9.29L37.75 9.29Q38.18 9.65 38.45 10.14L38.45 10.14L38.45 10.14Q38.72 10.63 38.82 11.20L38.82 11.20L37.73 11.45L37.73 11.45Q37.69 11.09 37.53 10.74L37.53 10.74L37.53 10.74Q37.37 10.40 37.09 10.14L37.09 10.14L37.09 10.14Q36.82 9.88 36.43 9.73L36.43 9.73L36.43 9.73Q36.04 9.58 35.52 9.58L35.52 9.58L35.52 9.58Q35.01 9.58 34.57 9.77L34.57 9.77L34.57 9.77Q34.13 9.95 33.80 10.30L33.80 10.30L33.80 10.30Q33.46 10.64 33.27 11.12L33.27 11.12L33.27 11.12Q33.08 11.59 33.08 12.15L33.08 12.15L33.08 12.32L33.08 12.32Q33.08 12.91 33.27 13.38L33.27 13.38L33.27 13.38Q33.46 13.85 33.80 14.17L33.80 14.17L33.80 14.17Q34.13 14.49 34.58 14.66L34.58 14.66L34.58 14.66Q35.03 14.84 35.55 14.84L35.55 14.84L35.55 14.84Q36.06 14.84 36.45 14.68L36.45 14.68L36.45 14.68Q36.83 14.52 37.11 14.26L37.11 14.26L37.11 14.26Q37.38 14 37.54 13.66L37.54 13.66L37.54 13.66Q37.70 13.33 37.76 12.96L37.76 12.96ZM49.01 12.07L49.01 15.68L47.92 15.68L47.92 5.88L49.01 5.88L49.01 10.00L49.18 10.00L49.18 10.00Q49.50 9.32 50.09 8.93L50.09 8.93L50.09 8.93Q50.67 8.54 51.51 8.54L51.51 8.54L51.51 8.54Q52.64 8.54 53.35 9.29L53.35 9.29L53.35 9.29Q54.05 10.04 54.05 11.54L54.05 11.54L54.05 15.68L52.96 15.68L52.96 11.76L52.96 11.76Q52.96 10.67 52.47 10.12L52.47 10.12L52.47 10.12Q51.98 9.58 51.14 9.58L51.14 9.58L51.14 9.58Q50.15 9.58 49.58 10.25L49.58 10.25L49.58 10.25Q49.01 10.93 49.01 12.07L49.01 12.07ZM68.53 14.59L68.53 14.50L68.36 14.50L68.36 14.50Q68.03 15.20 67.43 15.54L67.43 15.54L67.43 15.54Q66.84 15.88 66.18 15.88L66.18 15.88L66.18 15.88Q65.49 15.88 64.90 15.64L64.90 15.64L64.90 15.64Q64.32 15.41 63.88 14.96L63.88 14.96L63.88 14.96Q63.43 14.50 63.18 13.85L63.18 13.85L63.18 13.85Q62.93 13.19 62.93 12.32L62.93 12.32L62.93 12.10L62.93 12.10Q62.93 11.24 63.18 10.58L63.18 10.58L63.18 10.58Q63.43 9.93 63.88 9.47L63.88 9.47L63.88 9.47Q64.32 9.02 64.90 8.78L64.90 8.78L64.90 8.78Q65.49 8.54 66.15 8.54L66.15 8.54L66.15 8.54Q66.86 8.54 67.44 8.86L67.44 8.86L67.44 8.86Q68.03 9.17 68.36 9.83L68.36 9.83L68.53 9.83L68.53 8.74L69.62 8.74L69.62 14.25L69.62 14.25Q69.62 14.67 70 14.67L70 14.67L70.35 14.67L70.35 15.68L69.61 15.68L69.61 15.68Q69.13 15.68 68.83 15.37L68.83 15.37L68.83 15.37Q68.53 15.06 68.53 14.59L68.53 14.59ZM66.29 14.84L66.29 14.84L66.29 14.84Q66.78 14.84 67.19 14.66L67.19 14.66L67.19 14.66Q67.61 14.48 67.90 14.14L67.90 14.14L67.90 14.14Q68.19 13.80 68.36 13.33L68.36 13.33L68.36 13.33Q68.53 12.87 68.53 12.29L68.53 12.29L68.53 12.12L68.53 12.12Q68.53 11.56 68.36 11.09L68.36 11.09L68.36 11.09Q68.19 10.63 67.89 10.29L67.89 10.29L67.89 10.29Q67.59 9.95 67.18 9.77L67.18 9.77L67.18 9.77Q66.77 9.58 66.29 9.58L66.29 9.58L66.29 9.58Q65.80 9.58 65.39 9.76L65.39 9.76L65.39 9.76Q64.99 9.94 64.69 10.27L64.69 10.27L64.69 10.27Q64.39 10.60 64.22 11.07L64.22 11.07L64.22 11.07Q64.05 11.54 64.05 12.10L64.05 12.10L64.05 12.32L64.05 12.32Q64.05 13.51 64.67 14.17L64.67 14.17L64.67 14.17Q65.30 14.84 66.29 14.84ZM80.15 12.07L80.15 15.68L79.06 15.68L79.06 8.74L80.15 8.74L80.15 9.91L80.32 9.91L80.32 9.91Q80.96 8.54 82.56 8.54L82.56 8.54L82.56 8.54Q83.76 8.54 84.48 9.29L84.48 9.29L84.48 9.29Q85.19 10.04 85.19 11.54L85.19 11.54L85.19 15.68L84.10 15.68L84.10 11.76L84.10 11.76Q84.10 10.67 83.61 10.12L83.61 10.12L83.61 10.12Q83.12 9.58 82.28 9.58L82.28 9.58L82.28 9.58Q81.28 9.58 80.72 10.25L80.72 10.25L80.72 10.25Q80.15 10.93 80.15 12.07L80.15 12.07ZM99.90 17.05L99.90 14.62L99.74 14.62L99.74 14.62Q99.40 15.25 98.82 15.56L98.82 15.56L98.82 15.56Q98.24 15.88 97.55 15.88L97.55 15.88L97.55 15.88Q96.85 15.88 96.24 15.64L96.24 15.64L96.24 15.64Q95.62 15.40 95.15 14.95L95.15 14.95L95.15 14.95Q94.68 14.50 94.41 13.84L94.41 13.84L94.41 13.84Q94.14 13.17 94.14 12.32L94.14 12.32L94.14 12.10L94.14 12.10Q94.14 11.26 94.42 10.59L94.42 10.59L94.42 10.59Q94.70 9.93 95.16 9.47L95.16 9.47L95.16 9.47Q95.62 9.02 96.24 8.78L96.24 8.78L96.24 8.78Q96.85 8.54 97.52 8.54L97.52 8.54L97.52 8.54Q98.28 8.54 98.85 8.87L98.85 8.87L98.85 8.87Q99.41 9.20 99.74 9.83L99.74 9.83L99.90 9.83L99.90 8.74L101.00 8.74L101.00 17.39L101.00 17.39Q101.00 17.86 100.70 18.17L100.70 18.17L100.70 18.17Q100.39 18.48 99.92 18.48L99.92 18.48L95.40 18.48L95.40 17.47L99.53 17.47L99.53 17.47Q99.90 17.47 99.90 17.05L99.90 17.05ZM97.58 14.84L97.58 14.84L97.58 14.84Q98.07 14.84 98.49 14.66L98.49 14.66L98.49 14.66Q98.91 14.48 99.22 14.14L99.22 14.14L99.22 14.14Q99.54 13.80 99.72 13.33L99.72 13.33L99.72 13.33Q99.90 12.87 99.90 12.29L99.90 12.29L99.90 12.12L99.90 12.12Q99.90 11.56 99.72 11.09L99.72 11.09L99.72 11.09Q99.54 10.63 99.22 10.29L99.22 10.29L99.22 10.29Q98.91 9.95 98.48 9.77L98.48 9.77L98.48 9.77Q98.06 9.58 97.58 9.58L97.58 9.58L97.58 9.58Q97.09 9.58 96.66 9.76L96.66 9.76L96.66 9.76Q96.24 9.94 95.92 10.28L95.92 10.28L95.92 10.28Q95.61 10.61 95.43 11.07L95.43 11.07L95.43 11.07Q95.26 11.54 95.26 12.10L95.26 12.10L95.26 12.32L95.26 12.32Q95.26 12.91 95.43 13.37L95.43 13.37L95.43 13.37Q95.61 13.83 95.92 14.16L95.92 14.16L95.92 14.16Q96.24 14.49 96.66 14.66L96.66 14.66L96.66 14.66Q97.08 14.84 97.58 14.84ZM116.59 12.54L110.99 12.54L110.99 12.54Q111.03 13.58 111.64 14.21L111.64 14.21L111.64 14.21Q112.24 14.84 113.32 14.84L113.32 14.84L113.32 14.84Q113.81 14.84 114.17 14.73L114.17 14.73L114.17 14.73Q114.53 14.62 114.79 14.42L114.79 14.42L114.79 14.42Q115.05 14.22 115.21 13.96L115.21 13.96L115.21 13.96Q115.37 13.71 115.47 13.41L115.47 13.41L116.51 13.69L116.51 13.69Q116.21 14.66 115.42 15.27L115.42 15.27L115.42 15.27Q114.63 15.88 113.29 15.88L113.29 15.88L113.29 15.88Q112.55 15.88 111.92 15.62L111.92 15.62L111.92 15.62Q111.30 15.36 110.85 14.88L110.85 14.88L110.85 14.88Q110.40 14.41 110.15 13.75L110.15 13.75L110.15 13.75Q109.90 13.09 109.90 12.29L109.90 12.29L109.90 11.96L109.90 11.96Q109.90 11.23 110.16 10.60L110.16 10.60L110.16 10.60Q110.42 9.97 110.88 9.51L110.88 9.51L110.88 9.51Q111.34 9.06 111.97 8.80L111.97 8.80L111.97 8.80Q112.59 8.54 113.32 8.54L113.32 8.54L113.32 8.54Q114.17 8.54 114.79 8.86L114.79 8.86L114.79 8.86Q115.42 9.17 115.81 9.63L115.81 9.63L115.81 9.63Q116.21 10.09 116.40 10.64L116.40 10.64L116.40 10.64Q116.59 11.19 116.59 11.65L116.59 11.65L116.59 12.54ZM113.32 9.58L113.32 9.58L113.32 9.58Q112.85 9.58 112.45 9.72L112.45 9.72L112.45 9.72Q112.06 9.87 111.75 10.14L111.75 10.14L111.75 10.14Q111.45 10.40 111.27 10.76L111.27 10.76L111.27 10.76Q111.08 11.12 111.02 11.54L111.02 11.54L115.50 11.54L115.50 11.54Q115.47 11.09 115.28 10.72L115.28 10.72L115.28 10.72Q115.09 10.36 114.79 10.11L114.79 10.11L114.79 10.11Q114.49 9.86 114.11 9.72L114.11 9.72L114.11 9.72Q113.72 9.58 113.32 9.58ZM147.46 12.15L147.46 15.68L146.29 15.68L146.29 12.40L146.29 12.40Q146.29 12.04 146.12 11.84L146.12 11.84L146.12 11.84Q145.95 11.65 145.53 11.65L145.53 11.65L142.48 11.65L142.48 15.68L141.30 15.68L141.30 5.88L144.80 5.88L144.80 5.88Q145.56 5.88 146.12 6.10L146.12 6.10L146.12 6.10Q146.68 6.31 147.05 6.68L147.05 6.68L147.05 6.68Q147.42 7.04 147.61 7.53L147.61 7.53L147.61 7.53Q147.80 8.01 147.80 8.54L147.80 8.54L147.80 8.96L147.80 8.96Q147.80 9.51 147.50 10.05L147.50 10.05L147.50 10.05Q147.20 10.60 146.57 10.89L146.57 10.89L146.57 11.06L146.57 11.06Q146.99 11.13 147.22 11.40L147.22 11.40L147.22 11.40Q147.46 11.66 147.46 12.15L147.46 12.15ZM142.48 6.97L142.48 10.56L144.66 10.56L144.66 10.56Q145.66 10.56 146.14 10.13L146.14 10.13L146.14 10.13Q146.62 9.70 146.62 8.88L146.62 8.88L146.62 8.62L146.62 8.62Q146.62 7.88 146.14 7.43L146.14 7.43L146.14 7.43Q145.66 6.97 144.66 6.97L144.66 6.97L142.48 6.97ZM161.94 14.59L161.94 14.50L161.77 14.50L161.77 14.50Q161.43 15.20 160.84 15.54L160.84 15.54L160.84 15.54Q160.24 15.88 159.59 15.88L159.59 15.88L159.59 15.88Q158.90 15.88 158.31 15.64L158.31 15.64L158.31 15.64Q157.72 15.41 157.28 14.96L157.28 14.96L157.28 14.96Q156.84 14.50 156.59 13.85L156.59 13.85L156.59 13.85Q156.34 13.19 156.34 12.32L156.34 12.32L156.34 12.10L156.34 12.10Q156.34 11.24 156.59 10.58L156.59 10.58L156.59 10.58Q156.84 9.93 157.28 9.47L157.28 9.47L157.28 9.47Q157.72 9.02 158.31 8.78L158.31 8.78L158.31 8.78Q158.90 8.54 159.56 8.54L159.56 8.54L159.56 8.54Q160.27 8.54 160.85 8.86L160.85 8.86L160.85 8.86Q161.43 9.17 161.77 9.83L161.77 9.83L161.94 9.83L161.94 8.74L163.03 8.74L163.03 14.25L163.03 14.25Q163.03 14.67 163.41 14.67L163.41 14.67L163.76 14.67L163.76 15.68L163.02 15.68L163.02 15.68Q162.54 15.68 162.24 15.37L162.24 15.37L162.24 15.37Q161.94 15.06 161.94 14.59L161.94 14.59ZM159.70 14.84L159.70 14.84L159.70 14.84Q160.19 14.84 160.60 14.66L160.60 14.66L160.60 14.66Q161.01 14.48 161.31 14.14L161.31 14.14L161.31 14.14Q161.60 13.80 161.77 13.33L161.77 13.33L161.77 13.33Q161.94 12.87 161.94 12.29L161.94 12.29L161.94 12.12L161.94 12.12Q161.94 11.56 161.77 11.09L161.77 11.09L161.77 11.09Q161.60 10.63 161.30 10.29L161.30 10.29L161.30 10.29Q161 9.95 160.59 9.77L160.59 9.77L160.59 9.77Q160.17 9.58 159.70 9.58L159.70 9.58L159.70 9.58Q159.21 9.58 158.80 9.76L158.80 9.76L158.80 9.76Q158.40 9.94 158.09 10.27L158.09 10.27L158.09 10.27Q157.79 10.60 157.63 11.07L157.63 11.07L157.63 11.07Q157.46 11.54 157.46 12.10L157.46 12.10L157.46 12.32L157.46 12.32Q157.46 13.51 158.08 14.17L158.08 14.17L158.08 14.17Q158.70 14.84 159.70 14.84ZM172.23 9.74L172.23 8.74L174.41 8.74L174.41 5.88L175.50 5.88L175.50 8.74L178.19 8.74L178.19 9.74L175.50 9.74L175.50 14.25L175.50 14.25Q175.50 14.67 175.88 14.67L175.88 14.67L177.86 14.67L177.86 15.68L175.49 15.68L175.49 15.68Q175.01 15.68 174.71 15.37L174.71 15.37L174.71 15.37Q174.41 15.06 174.41 14.59L174.41 14.59L174.41 9.74L172.23 9.74ZM194.43 12.54L188.83 12.54L188.83 12.54Q188.87 13.58 189.48 14.21L189.48 14.21L189.48 14.21Q190.08 14.84 191.16 14.84L191.16 14.84L191.16 14.84Q191.65 14.84 192.01 14.73L192.01 14.73L192.01 14.73Q192.37 14.62 192.63 14.42L192.63 14.42L192.63 14.42Q192.89 14.22 193.05 13.96L193.05 13.96L193.05 13.96Q193.21 13.71 193.31 13.41L193.31 13.41L194.35 13.69L194.35 13.69Q194.05 14.66 193.26 15.27L193.26 15.27L193.26 15.27Q192.47 15.88 191.13 15.88L191.13 15.88L191.13 15.88Q190.39 15.88 189.76 15.62L189.76 15.62L189.76 15.62Q189.14 15.36 188.69 14.88L188.69 14.88L188.69 14.88Q188.24 14.41 187.99 13.75L187.99 13.75L187.99 13.75Q187.74 13.09 187.74 12.29L187.74 12.29L187.74 11.96L187.74 11.96Q187.74 11.23 188.00 10.60L188.00 10.60L188.00 10.60Q188.26 9.97 188.72 9.51L188.72 9.51L188.72 9.51Q189.18 9.06 189.81 8.80L189.81 8.80L189.81 8.80Q190.43 8.54 191.16 8.54L191.16 8.54L191.16 8.54Q192.01 8.54 192.63 8.86L192.63 8.86L192.63 8.86Q193.26 9.17 193.66 9.63L193.66 9.63L193.66 9.63Q194.05 10.09 194.24 10.64L194.24 10.64L194.24 10.64Q194.43 11.19 194.43 11.65L194.43 11.65L194.43 12.54ZM191.16 9.58L191.16 9.58L191.16 9.58Q190.69 9.58 190.30 9.72L190.30 9.72L190.30 9.72Q189.90 9.87 189.60 10.14L189.60 10.14L189.60 10.14Q189.29 10.40 189.11 10.76L189.11 10.76L189.11 10.76Q188.92 11.12 188.86 11.54L188.86 11.54L193.34 11.54L193.34 11.54Q193.31 11.09 193.12 10.72L193.12 10.72L193.12 10.72Q192.93 10.36 192.63 10.11L192.63 10.11L192.63 10.11Q192.33 9.86 191.95 9.72L191.95 9.72L191.95 9.72Q191.56 9.58 191.16 9.58ZM205.04 10.53L205.04 10.53L205.04 10.53Q205.04 11.03 205.47 11.30L205.47 11.30L205.47 11.30Q205.90 11.56 207.03 11.65L207.03 11.65L207.03 11.65Q208.25 11.75 208.89 12.23L208.89 12.23L208.89 12.23Q209.52 12.71 209.52 13.64L209.52 13.64L209.52 13.72L209.52 13.72Q209.52 14.22 209.32 14.62L209.32 14.62L209.32 14.62Q209.12 15.02 208.76 15.30L208.76 15.30L208.76 15.30Q208.40 15.58 207.89 15.73L207.89 15.73L207.89 15.73Q207.38 15.88 206.78 15.88L206.78 15.88L206.78 15.88Q205.97 15.88 205.39 15.66L205.39 15.66L205.39 15.66Q204.81 15.44 204.42 15.08L204.42 15.08L204.42 15.08Q204.04 14.73 203.84 14.27L203.84 14.27L203.84 14.27Q203.64 13.82 203.62 13.36L203.62 13.36L204.65 13.10L204.65 13.10Q204.72 13.90 205.27 14.38L205.27 14.38L205.27 14.38Q205.81 14.87 206.72 14.87L206.72 14.87L206.72 14.87Q207.49 14.87 207.96 14.57L207.96 14.57L207.96 14.57Q208.43 14.27 208.43 13.72L208.43 13.72L208.43 13.72Q208.43 13.13 207.97 12.88L207.97 12.88L207.97 12.88Q207.51 12.63 206.47 12.56L206.47 12.56L206.47 12.56Q205.27 12.47 204.62 12.00L204.62 12.00L204.62 12.00Q203.98 11.52 203.98 10.61L203.98 10.61L203.98 10.53L203.98 10.53Q203.98 10.04 204.19 9.67L204.19 9.67L204.19 9.67Q204.40 9.30 204.76 9.04L204.76 9.04L204.76 9.04Q205.11 8.79 205.56 8.67L205.56 8.67L205.56 8.67Q206.01 8.54 206.50 8.54L206.50 8.54L206.50 8.54Q207.19 8.54 207.70 8.73L207.70 8.73L207.70 8.73Q208.22 8.92 208.57 9.22L208.57 9.22L208.57 9.22Q208.92 9.52 209.11 9.91L209.11 9.91L209.11 9.91Q209.30 10.30 209.36 10.70L209.36 10.70L208.32 10.95L208.32 10.95Q208.25 10.28 207.78 9.90L207.78 9.90L207.78 9.90Q207.31 9.52 206.56 9.52L206.56 9.52L206.56 9.52Q206.26 9.52 205.99 9.58L205.99 9.58L205.99 9.58Q205.72 9.65 205.51 9.77L205.51 9.77L205.51 9.77Q205.30 9.90 205.17 10.09L205.17 10.09L205.17 10.09Q205.04 10.28 205.04 10.53ZM240.87 12.15L240.87 15.68L239.69 15.68L239.69 12.40L239.69 12.40Q239.69 12.04 239.53 11.84L239.53 11.84L239.53 11.84Q239.36 11.65 238.94 11.65L238.94 11.65L235.89 11.65L235.89 15.68L234.71 15.68L234.71 5.88L238.21 5.88L238.21 5.88Q238.97 5.88 239.53 6.10L239.53 6.10L239.53 6.10Q240.09 6.31 240.46 6.68L240.46 6.68L240.46 6.68Q240.83 7.04 241.02 7.53L241.02 7.53L241.02 7.53Q241.21 8.01 241.21 8.54L241.21 8.54L241.21 8.96L241.21 8.96Q241.21 9.51 240.91 10.05L240.91 10.05L240.91 10.05Q240.60 10.60 239.97 10.89L239.97 10.89L239.97 11.06L239.97 11.06Q240.39 11.13 240.63 11.40L240.63 11.40L240.63 11.40Q240.87 11.66 240.87 12.15L240.87 12.15ZM235.89 6.97L235.89 10.56L238.07 10.56L238.07 10.56Q239.06 10.56 239.55 10.13L239.55 10.13L239.55 10.13Q240.03 9.70 240.03 8.88L240.03 8.88L240.03 8.62L240.03 8.62Q240.03 7.88 239.55 7.43L239.55 7.43L239.55 7.43Q239.06 6.97 238.07 6.97L238.07 6.97L235.89 6.97ZM256.70 12.54L251.10 12.54L251.10 12.54Q251.15 13.58 251.75 14.21L251.75 14.21L251.75 14.21Q252.35 14.84 253.43 14.84L253.43 14.84L253.43 14.84Q253.92 14.84 254.28 14.73L254.28 14.73L254.28 14.73Q254.65 14.62 254.91 14.42L254.91 14.42L254.91 14.42Q255.16 14.22 255.33 13.96L255.33 13.96L255.33 13.96Q255.49 13.71 255.58 13.41L255.58 13.41L256.62 13.69L256.62 13.69Q256.33 14.66 255.54 15.27L255.54 15.27L255.54 15.27Q254.74 15.88 253.40 15.88L253.40 15.88L253.40 15.88Q252.66 15.88 252.04 15.62L252.04 15.62L252.04 15.62Q251.41 15.36 250.96 14.88L250.96 14.88L250.96 14.88Q250.52 14.41 250.26 13.75L250.26 13.75L250.26 13.75Q250.01 13.09 250.01 12.29L250.01 12.29L250.01 11.96L250.01 11.96Q250.01 11.23 250.27 10.60L250.27 10.60L250.27 10.60Q250.53 9.97 250.99 9.51L250.99 9.51L250.99 9.51Q251.45 9.06 252.08 8.80L252.08 8.80L252.08 8.80Q252.70 8.54 253.43 8.54L253.43 8.54L253.43 8.54Q254.28 8.54 254.91 8.86L254.91 8.86L254.91 8.86Q255.53 9.17 255.93 9.63L255.93 9.63L255.93 9.63Q256.33 10.09 256.52 10.64L256.52 10.64L256.52 10.64Q256.70 11.19 256.70 11.65L256.70 11.65L256.70 12.54ZM253.43 9.58L253.43 9.58L253.43 9.58Q252.97 9.58 252.57 9.72L252.57 9.72L252.57 9.72Q252.17 9.87 251.87 10.14L251.87 10.14L251.87 10.14Q251.57 10.40 251.38 10.76L251.38 10.76L251.38 10.76Q251.19 11.12 251.13 11.54L251.13 11.54L255.61 11.54L255.61 11.54Q255.58 11.09 255.40 10.72L255.40 10.72L255.40 10.72Q255.21 10.36 254.91 10.11L254.91 10.11L254.91 10.11Q254.60 9.86 254.22 9.72L254.22 9.72L254.22 9.72Q253.83 9.58 253.43 9.58ZM272.55 10.33L272.55 15.68L271.46 15.68L271.46 10.70L271.46 10.70Q271.46 10.21 271.24 9.89L271.24 9.89L271.24 9.89Q271.01 9.58 270.52 9.58L270.52 9.58L270.52 9.58Q270.06 9.58 269.77 9.92L269.77 9.92L269.77 9.92Q269.49 10.26 269.49 10.98L269.49 10.98L269.49 15.68L268.39 15.68L268.39 10.64L268.39 10.64Q268.39 10.18 268.14 9.88L268.14 9.88L268.14 9.88Q267.89 9.58 267.47 9.58L267.47 9.58L267.47 9.58Q266.97 9.58 266.69 9.94L266.69 9.94L266.69 9.94Q266.42 10.30 266.42 10.89L266.42 10.89L266.42 15.68L265.33 15.68L265.33 8.74L266.42 8.74L266.42 9.49L266.59 9.49L266.59 9.49Q266.77 9.00 267.12 8.77L267.12 8.77L267.12 8.77Q267.47 8.54 267.95 8.54L267.95 8.54L267.95 8.54Q268.45 8.54 268.78 8.81L268.78 8.81L268.78 8.81Q269.11 9.07 269.23 9.49L269.23 9.49L269.40 9.49L269.40 9.49Q269.88 8.54 270.91 8.54L270.91 8.54L270.91 8.54Q271.70 8.54 272.13 9.04L272.13 9.04L272.13 9.04Q272.55 9.53 272.55 10.33L272.55 10.33ZM283.60 6.66L283.60 6.66L283.60 6.66Q283.60 6.26 283.89 5.97L283.89 5.97L283.89 5.97Q284.17 5.68 284.58 5.68L284.58 5.68L284.58 5.68Q284.98 5.68 285.27 5.97L285.27 5.97L285.27 5.97Q285.56 6.26 285.56 6.66L285.56 6.66L285.56 6.66Q285.56 7.07 285.27 7.36L285.27 7.36L285.27 7.36Q284.98 7.64 284.58 7.64L284.58 7.64L284.58 7.64Q284.17 7.64 283.89 7.36L283.89 7.36L283.89 7.36Q283.60 7.07 283.60 6.66ZM281.61 15.68L281.61 14.67L284.05 14.67L284.05 9.74L281.86 9.74L281.86 8.74L285.14 8.74L285.14 14.67L287.41 14.67L287.41 15.68L281.61 15.68ZM298.10 12.07L298.10 15.68L297.01 15.68L297.01 8.74L298.10 8.74L298.10 9.91L298.27 9.91L298.27 9.91Q298.91 8.54 300.51 8.54L300.51 8.54L300.51 8.54Q301.71 8.54 302.43 9.29L302.43 9.29L302.43 9.29Q303.14 10.04 303.14 11.54L303.14 11.54L303.14 15.68L302.05 15.68L302.05 11.76L302.05 11.76Q302.05 10.67 301.56 10.12L301.56 10.12L301.56 10.12Q301.07 9.58 300.23 9.58L300.23 9.58L300.23 9.58Q299.24 9.58 298.67 10.25L298.67 10.25L298.67 10.25Q298.10 10.93 298.10 12.07L298.10 12.07ZM317.95 15.68L317.95 14.62L317.79 14.62L317.79 14.62Q317.62 14.94 317.36 15.18L317.36 15.18L317.36 15.18Q317.10 15.41 316.80 15.57L316.80 15.57L316.80 15.57Q316.50 15.72 316.16 15.80L316.16 15.80L316.16 15.80Q315.83 15.88 315.52 15.88L315.52 15.88L315.52 15.88Q314.82 15.88 314.22 15.64L314.22 15.64L314.22 15.64Q313.61 15.40 313.16 14.95L313.16 14.95L313.16 14.95Q312.70 14.50 312.44 13.84L312.44 13.84L312.44 13.84Q312.19 13.17 312.19 12.32L312.19 12.32L312.19 12.10L312.19 12.10Q312.19 11.26 312.45 10.59L312.45 10.59L312.45 10.59Q312.72 9.93 313.17 9.47L313.17 9.47L313.17 9.47Q313.61 9.02 314.22 8.78L314.22 8.78L314.22 8.78Q314.82 8.54 315.49 8.54L315.49 8.54L315.49 8.54Q316.20 8.54 316.83 8.86L316.83 8.86L316.83 8.86Q317.45 9.17 317.79 9.83L317.79 9.83L317.95 9.83L317.95 5.88L319.05 5.88L319.05 15.68L317.95 15.68ZM315.63 14.84L315.63 14.84L315.63 14.84Q316.12 14.84 316.54 14.66L316.54 14.66L316.54 14.66Q316.96 14.48 317.28 14.14L317.28 14.14L317.28 14.14Q317.59 13.80 317.77 13.33L317.77 13.33L317.77 13.33Q317.95 12.87 317.95 12.29L317.95 12.29L317.95 12.12L317.95 12.12Q317.95 11.56 317.77 11.09L317.77 11.09L317.77 11.09Q317.59 10.63 317.28 10.29L317.28 10.29L317.28 10.29Q316.96 9.95 316.53 9.77L316.53 9.77L316.53 9.77Q316.11 9.58 315.63 9.58L315.63 9.58L315.63 9.58Q315.14 9.58 314.71 9.76L314.71 9.76L314.71 9.76Q314.29 9.94 313.97 10.28L313.97 10.28L313.97 10.28Q313.66 10.61 313.48 11.07L313.48 11.07L313.48 11.07Q313.31 11.54 313.31 12.10L313.31 12.10L313.31 12.32L313.31 12.32Q313.31 12.91 313.48 13.37L313.48 13.37L313.48 13.37Q313.66 13.83 313.97 14.16L313.97 14.16L313.97 14.16Q314.29 14.49 314.71 14.66L314.71 14.66L314.71 14.66Q315.13 14.84 315.63 14.84ZM334.54 12.54L328.94 12.54L328.94 12.54Q328.99 13.58 329.59 14.21L329.59 14.21L329.59 14.21Q330.19 14.84 331.27 14.84L331.27 14.84L331.27 14.84Q331.76 14.84 332.12 14.73L332.12 14.73L332.12 14.73Q332.49 14.62 332.75 14.42L332.75 14.42L332.75 14.42Q333.00 14.22 333.17 13.96L333.17 13.96L333.17 13.96Q333.33 13.71 333.42 13.41L333.42 13.41L334.46 13.69L334.46 13.69Q334.17 14.66 333.38 15.27L333.38 15.27L333.38 15.27Q332.58 15.88 331.24 15.88L331.24 15.88L331.24 15.88Q330.50 15.88 329.88 15.62L329.88 15.62L329.88 15.62Q329.25 15.36 328.80 14.88L328.80 14.88L328.80 14.88Q328.36 14.41 328.10 13.75L328.10 13.75L328.10 13.75Q327.85 13.09 327.85 12.29L327.85 12.29L327.85 11.96L327.85 11.96Q327.85 11.23 328.11 10.60L328.11 10.60L328.11 10.60Q328.37 9.97 328.83 9.51L328.83 9.51L328.83 9.51Q329.29 9.06 329.92 8.80L329.92 8.80L329.92 8.80Q330.54 8.54 331.27 8.54L331.27 8.54L331.27 8.54Q332.12 8.54 332.75 8.86L332.75 8.86L332.75 8.86Q333.37 9.17 333.77 9.63L333.77 9.63L333.77 9.63Q334.17 10.09 334.36 10.64L334.36 10.64L334.36 10.64Q334.54 11.19 334.54 11.65L334.54 11.65L334.54 12.54ZM331.27 9.58L331.27 9.58L331.27 9.58Q330.81 9.58 330.41 9.72L330.41 9.72L330.41 9.72Q330.01 9.87 329.71 10.14L329.71 10.14L329.71 10.14Q329.41 10.40 329.22 10.76L329.22 10.76L329.22 10.76Q329.03 11.12 328.97 11.54L328.97 11.54L333.45 11.54L333.45 11.54Q333.42 11.09 333.24 10.72L333.24 10.72L333.24 10.72Q333.05 10.36 332.75 10.11L332.75 10.11L332.75 10.11Q332.44 9.86 332.06 9.72L332.06 9.72L332.06 9.72Q331.67 9.58 331.27 9.58ZM343.32 9.74L343.32 8.74L345.84 8.74L345.84 9.66L346.01 9.66L346.01 9.66Q346.28 9.09 346.77 8.81L346.77 8.81L346.77 8.81Q347.26 8.54 347.89 8.54L347.89 8.54L347.89 8.54Q348.94 8.54 349.58 9.23L349.58 9.23L349.58 9.23Q350.22 9.91 350.27 11.23L350.27 11.23L349.12 11.40L349.12 11.40Q349.12 10.43 348.66 10.00L348.66 10.00L348.66 10.00Q348.19 9.58 347.52 9.58L347.52 9.58L347.52 9.58Q347.09 9.58 346.77 9.74L346.77 9.74L346.77 9.74Q346.46 9.91 346.25 10.21L346.25 10.21L346.25 10.21Q346.04 10.50 345.94 10.89L345.94 10.89L345.94 10.89Q345.84 11.28 345.84 11.73L345.84 11.73L345.84 14.67L347.61 14.67L347.61 15.68L343.15 15.68L343.15 14.67L344.75 14.67L344.75 9.74L343.32 9.74Z"></path></g></svg>