<svg data-v-fde0c5aa="" xmlns="http://www.w3.org/2000/svg" viewBox="0 0 300 300" class="icon"><!----><defs data-v-fde0c5aa=""><!----></defs><rect data-v-fde0c5aa="" fill="#132554" x="0" y="0" width="300px" height="300px" class="logo-background-square"></rect><!----><defs data-v-fde0c5aa=""><!----></defs><g data-v-fde0c5aa="" id="6ee85509-b0ed-4a41-b790-3054ae651213" fill="#00A3DD" stroke="none" transform="matrix(2.4221753415705334,0,0,2.4221753415705334,28.889967059878956,28.891209821809205)"><path fill-rule="evenodd" clip-rule="evenodd" d="M28.771 17.173c5.02 1.652 10.008 3.406 15.067 4.925 5.057 1.516 10.115 3.476 15.299 4.009 6.457.665 12.558-4.046 14.61-10.262 1.062-3.222 2.696-2.23 4.53-1.064 7.34 4.669 11.965 11.562 14.427 19.615 1.563 5.117 1.782 10.681 2.272 16.075.271 2.974-1.71 4.844-4.278 6.18-14.588 7.593-27.94 4.734-41.068-4.049-7.153-4.785-14.787-9.067-22.696-12.418-4.031-1.708-9.145-1.073-13.771-1.102-5.128-.03-6.927-1.898-4.908-6.463 4.152-9.393 8.605-14.57 20.516-15.446z"></path><path fill-rule="evenodd" clip-rule="evenodd" d="M5.006 54.279c-.057-7.91.199-7.67 5.821-8.992 11.541-2.715 20.914 1.757 29.956 7.999 6.697 4.621 13.166 9.583 21.258 11.819 8.952 2.476 17.654 2.253 26.341-1.026 1.229-.463 2.712-.253 4.077-.354-.207 1.363-.17 2.824-.66 4.075-5.368 13.711-21.246 16.426-34.401 10.659-3.896-1.708-7.819-3.488-11.901-4.616-8.061-2.228-15.919 1.389-19.252 8.956-1.49 3.38-2.824 3.047-5.266 1.246C10.23 76.111 6.221 64.851 5.006 54.279z"></path><path fill-rule="evenodd" clip-rule="evenodd" d="M72.867 89.96c-5.53 1.722-10.052 3.428-14.719 4.514-7.909 1.84-15.677.96-23.056-2.482-4.632-2.162-5.158-7.041-1.304-10.342 3.779-3.238 8.233-3.479 12.464-1.9 7.835 2.926 15.173 7.26 23.797 7.833.587.038 1.121.91 2.818 2.377zM28.966 9.381c4.194-1.357 8.302-3.201 12.601-3.964 7.153-1.27 14.361-1.303 21.349 1.462 3.164 1.251 5.53 3.192 5.36 6.673-.173 3.499-2.896 5.705-6.016 6.109-3.469.449-7.273.376-10.602-.593-7.012-2.042-13.809-4.815-20.69-7.3-.586-.213-1.14-.517-1.71-.778-.096-.537-.195-1.073-.292-1.609z"></path></g><!----></svg>