<?xml version="1.0" encoding="UTF-8"?>
<!--Generator: Apple Native CoreSVG 123-->
<!DOCTYPE svg
PUBLIC "-//W3C//DTD SVG 1.1//EN"
       "http://www.w3.org/Graphics/SVG/1.1/DTD/svg11.dtd">
<svg version="1.1" xmlns="http://www.w3.org/2000/svg" xmlns:xlink="http://www.w3.org/1999/xlink" width="3300" height="2200">
 <!--glyph: "uni10039E.medium", point size: 100.000000, font version: "Version 15.0d7e11", template writer version: "5"-->
 <g id="Notes">
  <rect height="2200" id="artboard" style="fill:white;opacity:1" width="3300" x="0" y="0"/>
  <line id="" style="fill:none;stroke:black;opacity:1;stroke-width:0.5;" x1="263" x2="3036" y1="292" y2="292"/>
  <text style="stroke:none;fill:black;font-family:-apple-system,&quot;SF Pro Display&quot;,&quot;SF Pro Text&quot;,Helvetica,sans-serif;font-weight:bold;" transform="matrix(1 0 0 1 263 322)">Weight/Scale Variations</text>
  <text style="stroke:none;fill:black;font-family:-apple-system,&quot;SF Pro Display&quot;,&quot;SF Pro Text&quot;,Helvetica,sans-serif;text-anchor:middle;" transform="matrix(1 0 0 1 559.711 322)">Ultralight</text>
  <text style="stroke:none;fill:black;font-family:-apple-system,&quot;SF Pro Display&quot;,&quot;SF Pro Text&quot;,Helvetica,sans-serif;text-anchor:middle;" transform="matrix(1 0 0 1 856.422 322)">Thin</text>
  <text style="stroke:none;fill:black;font-family:-apple-system,&quot;SF Pro Display&quot;,&quot;SF Pro Text&quot;,Helvetica,sans-serif;text-anchor:middle;" transform="matrix(1 0 0 1 1153.13 322)">Light</text>
  <text style="stroke:none;fill:black;font-family:-apple-system,&quot;SF Pro Display&quot;,&quot;SF Pro Text&quot;,Helvetica,sans-serif;text-anchor:middle;" transform="matrix(1 0 0 1 1449.84 322)">Regular</text>
  <text style="stroke:none;fill:black;font-family:-apple-system,&quot;SF Pro Display&quot;,&quot;SF Pro Text&quot;,Helvetica,sans-serif;text-anchor:middle;" transform="matrix(1 0 0 1 1746.56 322)">Medium</text>
  <text style="stroke:none;fill:black;font-family:-apple-system,&quot;SF Pro Display&quot;,&quot;SF Pro Text&quot;,Helvetica,sans-serif;text-anchor:middle;" transform="matrix(1 0 0 1 2043.27 322)">Semibold</text>
  <text style="stroke:none;fill:black;font-family:-apple-system,&quot;SF Pro Display&quot;,&quot;SF Pro Text&quot;,Helvetica,sans-serif;text-anchor:middle;" transform="matrix(1 0 0 1 2339.98 322)">Bold</text>
  <text style="stroke:none;fill:black;font-family:-apple-system,&quot;SF Pro Display&quot;,&quot;SF Pro Text&quot;,Helvetica,sans-serif;text-anchor:middle;" transform="matrix(1 0 0 1 2636.69 322)">Heavy</text>
  <text style="stroke:none;fill:black;font-family:-apple-system,&quot;SF Pro Display&quot;,&quot;SF Pro Text&quot;,Helvetica,sans-serif;text-anchor:middle;" transform="matrix(1 0 0 1 2933.4 322)">Black</text>
  <line id="" style="fill:none;stroke:black;opacity:1;stroke-width:0.5;" x1="263" x2="3036" y1="1903" y2="1903"/>
  <g id="" transform="matrix(1 0 0 1 263 1933)">
   <path d="M 9.24805 0.830078 C 13.5547 0.830078 17.1387 -2.74414 17.1387 -7.05078 C 17.1387 -11.3574 13.5449 -14.9316 9.23828 -14.9316 C 4.94141 -14.9316 1.36719 -11.3574 1.36719 -7.05078 C 1.36719 -2.74414 4.95117 0.830078 9.24805 0.830078 Z M 9.24805 -0.654297 C 5.70312 -0.654297 2.87109 -3.49609 2.87109 -7.05078 C 2.87109 -10.6055 5.69336 -13.4473 9.23828 -13.4473 C 12.793 -13.4473 15.6348 -10.6055 15.6445 -7.05078 C 15.6543 -3.49609 12.8027 -0.654297 9.24805 -0.654297 Z M 9.22852 -3.42773 C 9.69727 -3.42773 9.9707 -3.74023 9.9707 -4.25781 L 9.9707 -6.31836 L 12.1973 -6.31836 C 12.6953 -6.31836 13.0371 -6.57227 13.0371 -7.04102 C 13.0371 -7.51953 12.7148 -7.7832 12.1973 -7.7832 L 9.9707 -7.7832 L 9.9707 -10.0098 C 9.9707 -10.5273 9.69727 -10.8496 9.22852 -10.8496 C 8.75977 -10.8496 8.50586 -10.5078 8.50586 -10.0098 L 8.50586 -7.7832 L 6.29883 -7.7832 C 5.78125 -7.7832 5.44922 -7.51953 5.44922 -7.04102 C 5.44922 -6.57227 5.80078 -6.31836 6.29883 -6.31836 L 8.50586 -6.31836 L 8.50586 -4.25781 C 8.50586 -3.75977 8.75977 -3.42773 9.22852 -3.42773 Z"/>
  </g>
  <g id="" transform="matrix(1 0 0 1 281.506 1933)">
   <path d="M 11.709 2.91016 C 17.1582 2.91016 21.6699 -1.60156 21.6699 -7.05078 C 21.6699 -12.4902 17.1484 -17.0117 11.6992 -17.0117 C 6.25977 -17.0117 1.74805 -12.4902 1.74805 -7.05078 C 1.74805 -1.60156 6.26953 2.91016 11.709 2.91016 Z M 11.709 1.25 C 7.09961 1.25 3.41797 -2.44141 3.41797 -7.05078 C 3.41797 -11.6504 7.08984 -15.3516 11.6992 -15.3516 C 16.3086 -15.3516 20 -11.6504 20.0098 -7.05078 C 20.0195 -2.44141 16.3184 1.25 11.709 1.25 Z M 11.6895 -2.41211 C 12.207 -2.41211 12.5195 -2.77344 12.5195 -3.33984 L 12.5195 -6.23047 L 15.5762 -6.23047 C 16.123 -6.23047 16.5039 -6.51367 16.5039 -7.03125 C 16.5039 -7.55859 16.1426 -7.86133 15.5762 -7.86133 L 12.5195 -7.86133 L 12.5195 -10.9277 C 12.5195 -11.5039 12.207 -11.8555 11.6895 -11.8555 C 11.1719 -11.8555 10.8789 -11.4844 10.8789 -10.9277 L 10.8789 -7.86133 L 7.83203 -7.86133 C 7.26562 -7.86133 6.89453 -7.55859 6.89453 -7.03125 C 6.89453 -6.51367 7.28516 -6.23047 7.83203 -6.23047 L 10.8789 -6.23047 L 10.8789 -3.33984 C 10.8789 -2.79297 11.1719 -2.41211 11.6895 -2.41211 Z"/>
  </g>
  <g id="" transform="matrix(1 0 0 1 304.924 1933)">
   <path d="M 14.9707 5.67383 C 21.9336 5.67383 27.6953 -0.078125 27.6953 -7.04102 C 27.6953 -14.0039 21.9238 -19.7559 14.9609 -19.7559 C 8.00781 -19.7559 2.25586 -14.0039 2.25586 -7.04102 C 2.25586 -0.078125 8.01758 5.67383 14.9707 5.67383 Z M 14.9707 3.85742 C 8.93555 3.85742 4.08203 -1.00586 4.08203 -7.04102 C 4.08203 -13.0762 8.92578 -17.9395 14.9609 -17.9395 C 21.0059 -17.9395 25.8594 -13.0762 25.8691 -7.04102 C 25.8789 -1.00586 21.0156 3.85742 14.9707 3.85742 Z M 14.9512 -1.06445 C 15.5176 -1.06445 15.8691 -1.45508 15.8691 -2.06055 L 15.8691 -6.13281 L 20.1074 -6.13281 C 20.6934 -6.13281 21.1133 -6.46484 21.1133 -7.02148 C 21.1133 -7.59766 20.7227 -7.93945 20.1074 -7.93945 L 15.8691 -7.93945 L 15.8691 -12.1875 C 15.8691 -12.8027 15.5176 -13.1934 14.9512 -13.1934 C 14.3848 -13.1934 14.0625 -12.7832 14.0625 -12.1875 L 14.0625 -7.93945 L 9.83398 -7.93945 C 9.21875 -7.93945 8.80859 -7.59766 8.80859 -7.02148 C 8.80859 -6.46484 9.23828 -6.13281 9.83398 -6.13281 L 14.0625 -6.13281 L 14.0625 -2.06055 C 14.0625 -1.47461 14.3848 -1.06445 14.9512 -1.06445 Z"/>
  </g>
  <text style="stroke:none;fill:black;font-family:-apple-system,&quot;SF Pro Display&quot;,&quot;SF Pro Text&quot;,Helvetica,sans-serif;font-weight:bold;" transform="matrix(1 0 0 1 263 1953)">Design Variations</text>
  <text style="stroke:none;fill:black;font-family:-apple-system,&quot;SF Pro Display&quot;,&quot;SF Pro Text&quot;,Helvetica,sans-serif;" transform="matrix(1 0 0 1 263 1971)">Symbols are supported in up to nine weights and three scales.</text>
  <text style="stroke:none;fill:black;font-family:-apple-system,&quot;SF Pro Display&quot;,&quot;SF Pro Text&quot;,Helvetica,sans-serif;" transform="matrix(1 0 0 1 263 1989)">For optimal layout with text and other symbols, vertically align</text>
  <text style="stroke:none;fill:black;font-family:-apple-system,&quot;SF Pro Display&quot;,&quot;SF Pro Text&quot;,Helvetica,sans-serif;" transform="matrix(1 0 0 1 263 2007)">symbols with the adjacent text.</text>
  <rect height="14" id="" style="fill:#00AEEF;stroke:none;opacity:0.4;" width="3" x="776" y="1919"/>
  <g id="" transform="matrix(1 0 0 1 779 1933)">
   <path d="M 10.5273 0 L 12.373 0 L 7.17773 -14.0918 L 5.43945 -14.0918 L 0.244141 0 L 2.08984 0 L 3.50586 -4.0332 L 9.11133 -4.0332 Z M 6.2793 -11.9531 L 6.33789 -11.9531 L 8.59375 -5.52734 L 4.02344 -5.52734 Z"/>
  </g>
  <rect height="14" id="" style="fill:#00AEEF;stroke:none;opacity:0.4;" width="3" x="791.617" y="1919"/>
  <text style="stroke:none;fill:black;font-family:-apple-system,&quot;SF Pro Display&quot;,&quot;SF Pro Text&quot;,Helvetica,sans-serif;font-weight:bold;" transform="matrix(1 0 0 1 776 1953)">Margins</text>
  <text style="stroke:none;fill:black;font-family:-apple-system,&quot;SF Pro Display&quot;,&quot;SF Pro Text&quot;,Helvetica,sans-serif;" transform="matrix(1 0 0 1 776 1971)">Leading and trailing margins on the left and right side of each symbol</text>
  <text style="stroke:none;fill:black;font-family:-apple-system,&quot;SF Pro Display&quot;,&quot;SF Pro Text&quot;,Helvetica,sans-serif;" transform="matrix(1 0 0 1 776 1989)">can be adjusted by modifying the width of the blue rectangles.</text>
  <text style="stroke:none;fill:black;font-family:-apple-system,&quot;SF Pro Display&quot;,&quot;SF Pro Text&quot;,Helvetica,sans-serif;" transform="matrix(1 0 0 1 776 2007)">Modifications are automatically applied proportionally to all</text>
  <text style="stroke:none;fill:black;font-family:-apple-system,&quot;SF Pro Display&quot;,&quot;SF Pro Text&quot;,Helvetica,sans-serif;" transform="matrix(1 0 0 1 776 2025)">scales and weights.</text>
  <g id="" transform="matrix(1 0 0 1 1289 1933)">
   <path d="M 2.83203 3.11523 L 4.375 4.6582 C 5.22461 5.48828 6.19141 5.41992 7.06055 4.46289 L 17.2754 -6.66016 C 17.7051 -6.36719 18.0957 -6.37695 18.5645 -6.47461 L 19.6094 -6.68945 L 20.3027 -5.99609 L 20.2539 -5.47852 C 20.1855 -4.95117 20.3516 -4.53125 20.8496 -4.0332 L 21.6602 -3.22266 C 22.168 -2.71484 22.8223 -2.68555 23.3008 -3.16406 L 26.5527 -6.41602 C 27.0312 -6.89453 27.0117 -7.54883 26.5039 -8.05664 L 25.6836 -8.87695 C 25.1855 -9.375 24.7754 -9.55078 24.2383 -9.47266 L 23.7109 -9.41406 L 23.0566 -10.0781 L 23.3398 -11.2207 C 23.4863 -11.7871 23.3398 -12.2559 22.7148 -12.8613 L 20.3027 -15.2539 C 16.7578 -18.7793 12.2266 -18.6719 9.11133 -15.5371 C 8.69141 -15.1074 8.64258 -14.5215 8.91602 -14.0918 C 9.15039 -13.7207 9.62891 -13.4961 10.2734 -13.6621 C 11.7871 -14.043 13.3008 -13.9258 14.7852 -12.9199 L 14.1602 -11.3379 C 13.9258 -10.752 13.9453 -10.2734 14.1797 -9.83398 L 3.01758 0.439453 C 2.08008 1.30859 1.97266 2.25586 2.83203 3.11523 Z M 10.6738 -15.1465 C 13.3398 -17.1387 16.6504 -16.8262 19.0527 -14.4141 L 21.6797 -11.8066 C 21.9141 -11.5723 21.9434 -11.3867 21.8848 -11.0938 L 21.5039 -9.53125 L 23.0762 -7.95898 L 24.043 -8.04688 C 24.3262 -8.07617 24.4141 -8.05664 24.6387 -7.83203 L 25.2637 -7.20703 L 22.5098 -4.46289 L 21.8848 -5.07812 C 21.6602 -5.30273 21.6406 -5.40039 21.6699 -5.68359 L 21.7578 -6.64062 L 20.1953 -8.20312 L 18.5742 -7.89062 C 18.291 -7.83203 18.1445 -7.83203 17.9102 -8.07617 L 15.7324 -10.2539 C 15.5078 -10.4883 15.4785 -10.625 15.6055 -10.9473 L 16.5527 -13.2227 C 14.9512 -14.7559 12.8418 -15.6055 10.8008 -14.9512 C 10.7129 -14.9219 10.6445 -14.9414 10.6152 -14.9805 C 10.5859 -15.0293 10.5859 -15.0781 10.6738 -15.1465 Z M 4.10156 2.41211 C 3.61328 1.91406 3.78906 1.61133 4.12109 1.30859 L 15.0781 -8.80859 L 16.3086 -7.57812 L 6.15234 3.34961 C 5.84961 3.68164 5.46875 3.7793 5.06836 3.37891 Z"/>
  </g>
  <text style="stroke:none;fill:black;font-family:-apple-system,&quot;SF Pro Display&quot;,&quot;SF Pro Text&quot;,Helvetica,sans-serif;font-weight:bold;" transform="matrix(1 0 0 1 1289 1953)">Exporting</text>
  <text style="stroke:none;fill:black;font-family:-apple-system,&quot;SF Pro Display&quot;,&quot;SF Pro Text&quot;,Helvetica,sans-serif;" transform="matrix(1 0 0 1 1289 1971)">Symbols should be outlined when exporting to ensure the</text>
  <text style="stroke:none;fill:black;font-family:-apple-system,&quot;SF Pro Display&quot;,&quot;SF Pro Text&quot;,Helvetica,sans-serif;" transform="matrix(1 0 0 1 1289 1989)">design is preserved when submitting to Xcode.</text>
  <text id="template-version" style="stroke:none;fill:black;font-family:-apple-system,&quot;SF Pro Display&quot;,&quot;SF Pro Text&quot;,Helvetica,sans-serif;text-anchor:end;" transform="matrix(1 0 0 1 3036 1933)">Template v.1.0</text>
  <text style="stroke:none;fill:black;font-family:-apple-system,&quot;SF Pro Display&quot;,&quot;SF Pro Text&quot;,Helvetica,sans-serif;text-anchor:end;" transform="matrix(1 0 0 1 3036 1951)">Generated from house</text>
  <text style="stroke:none;fill:black;font-family:-apple-system,&quot;SF Pro Display&quot;,&quot;SF Pro Text&quot;,Helvetica,sans-serif;text-anchor:end;" transform="matrix(1 0 0 1 3036 1969)">Typeset at 100 points</text>
  <text style="stroke:none;fill:black;font-family:-apple-system,&quot;SF Pro Display&quot;,&quot;SF Pro Text&quot;,Helvetica,sans-serif;" transform="matrix(1 0 0 1 263 726)">Small</text>
  <text style="stroke:none;fill:black;font-family:-apple-system,&quot;SF Pro Display&quot;,&quot;SF Pro Text&quot;,Helvetica,sans-serif;" transform="matrix(1 0 0 1 263 1156)">Medium</text>
  <text style="stroke:none;fill:black;font-family:-apple-system,&quot;SF Pro Display&quot;,&quot;SF Pro Text&quot;,Helvetica,sans-serif;" transform="matrix(1 0 0 1 263 1586)">Large</text>
 </g>
 <g id="Guides">
  <g id="H-reference" style="fill:#27AAE1;stroke:none;" transform="matrix(1 0 0 1 339 696)">
   <path d="M 54.9316 0 L 57.666 0 L 30.5664 -70.459 L 28.0762 -70.459 L 0.976562 0 L 3.66211 0 L 12.9395 -24.4629 L 45.7031 -24.4629 Z M 29.1992 -67.0898 L 29.4434 -67.0898 L 44.8242 -26.709 L 13.8184 -26.709 Z"/>
  </g>
  <line id="Baseline-S" style="fill:none;stroke:#27AAE1;opacity:1;stroke-width:0.577;" x1="263" x2="3036" y1="696" y2="696"/>
  <line id="Capline-S" style="fill:none;stroke:#27AAE1;opacity:1;stroke-width:0.577;" x1="263" x2="3036" y1="625.541" y2="625.541"/>
  <g id="H-reference" style="fill:#27AAE1;stroke:none;" transform="matrix(1 0 0 1 339 1126)">
   <path d="M 54.9316 0 L 57.666 0 L 30.5664 -70.459 L 28.0762 -70.459 L 0.976562 0 L 3.66211 0 L 12.9395 -24.4629 L 45.7031 -24.4629 Z M 29.1992 -67.0898 L 29.4434 -67.0898 L 44.8242 -26.709 L 13.8184 -26.709 Z"/>
  </g>
  <line id="Baseline-M" style="fill:none;stroke:#27AAE1;opacity:1;stroke-width:0.577;" x1="263" x2="3036" y1="1126" y2="1126"/>
  <line id="Capline-M" style="fill:none;stroke:#27AAE1;opacity:1;stroke-width:0.577;" x1="263" x2="3036" y1="1055.54" y2="1055.54"/>
  <g id="H-reference" style="fill:#27AAE1;stroke:none;" transform="matrix(1 0 0 1 339 1556)">
   <path d="M 54.9316 0 L 57.666 0 L 30.5664 -70.459 L 28.0762 -70.459 L 0.976562 0 L 3.66211 0 L 12.9395 -24.4629 L 45.7031 -24.4629 Z M 29.1992 -67.0898 L 29.4434 -67.0898 L 44.8242 -26.709 L 13.8184 -26.709 Z"/>
  </g>
  <line id="Baseline-L" style="fill:none;stroke:#27AAE1;opacity:1;stroke-width:0.577;" x1="263" x2="3036" y1="1556" y2="1556"/>
  <line id="Capline-L" style="fill:none;stroke:#27AAE1;opacity:1;stroke-width:0.577;" x1="263" x2="3036" y1="1485.54" y2="1485.54"/>
  <rect height="119.336" id="left-margin" style="fill:#00AEEF;stroke:none;opacity:0.4;" width="9.96094" x="1382.85" y="1030.79"/>
  <rect height="119.336" id="right-margin" style="fill:#00AEEF;stroke:none;opacity:0.4;" width="9.96094" x="1506.88" y="1030.79"/>
 </g>
 <g id="Symbols">
  <g id="Black-L" transform="matrix(1 0 0 1 2835.04 1556)">
   <path d="M 22.998 -30.3223 C 25.9766 -30.3223 28.6621 -31.543 30.8594 -33.5449 L 39.2578 -41.3086 L 39.2578 12.5 C 39.2578 23.4375 46.2402 30.3711 57.9102 30.3711 L 138.818 30.3711 C 150.488 30.3711 157.471 23.4375 157.471 12.5 L 157.471 -41.3086 L 165.869 -33.5449 C 168.066 -31.543 170.752 -30.3223 173.73 -30.3223 C 179.492 -30.3223 183.838 -34.4727 183.838 -39.7949 C 183.838 -42.4805 183.252 -45.1172 180.029 -48.0469 L 153.955 -71.8262 L 153.955 -111.816 C 153.955 -114.941 151.953 -116.943 148.779 -116.943 L 132.373 -116.943 C 129.248 -116.943 127.148 -114.941 127.148 -111.816 L 127.148 -96.2402 L 111.523 -110.547 C 107.471 -114.258 103.174 -116.016 98.291 -116.016 C 93.5059 -116.016 89.209 -114.16 85.2051 -110.547 L 16.6992 -48.0469 C 13.4766 -45.1172 12.8906 -42.4805 12.8906 -39.7949 C 12.8906 -34.4727 17.2363 -30.3223 22.998 -30.3223 Z M 117.529 -30.4199 C 117.529 -33.5449 115.527 -35.5469 112.402 -35.5469 L 84.375 -35.5469 C 81.25 -35.5469 79.1504 -33.5449 79.1504 -30.4199 L 79.1504 10.1074 L 65.0391 10.1074 C 61.5234 10.1074 59.5215 8.05664 59.5215 4.58984 L 59.5215 -59.8633 L 97.2168 -94.4824 C 97.5098 -94.7266 97.8516 -94.9707 98.3398 -94.9707 C 98.7305 -94.9707 99.2188 -94.8242 99.5117 -94.5312 L 137.207 -59.9121 L 137.207 4.58984 C 137.207 8.05664 135.205 10.1074 131.689 10.1074 L 117.529 10.1074 Z"/>
  </g>
  <g id="Heavy-L" transform="matrix(1 0 0 1 2541.43 1556)">
   <path d="M 21.6797 -31.7383 C 24.3164 -31.7383 26.6602 -32.8613 28.5645 -34.6191 L 37.1582 -42.4805 L 37.1582 12.5488 C 37.1582 22.9004 43.6035 29.3457 54.541 29.3457 L 135.986 29.3457 C 146.924 29.3457 153.369 22.9004 153.369 12.5488 L 153.369 -42.4805 L 161.963 -34.6191 C 163.867 -32.8613 166.211 -31.7383 168.848 -31.7383 C 173.828 -31.7383 177.637 -35.3027 177.637 -39.9414 C 177.637 -42.3828 177.051 -44.6289 174.316 -47.0703 L 149.463 -69.7754 L 149.463 -109.229 C 149.463 -112.207 147.559 -114.111 144.58 -114.111 L 130.371 -114.111 C 127.441 -114.111 125.439 -112.207 125.439 -109.229 L 125.439 -91.6992 L 106.982 -108.545 C 103.418 -111.816 99.5605 -113.428 95.2148 -113.428 C 90.918 -113.428 87.0605 -111.768 83.5449 -108.545 L 16.2109 -47.0703 C 13.4766 -44.6289 12.8906 -42.3828 12.8906 -39.9414 C 12.8906 -35.3027 16.6992 -31.7383 21.6797 -31.7383 Z M 114.16 -29.1992 C 114.16 -32.2266 112.207 -34.1797 109.131 -34.1797 L 81.4453 -34.1797 C 78.3691 -34.1797 76.3672 -32.2266 76.3672 -29.1992 L 76.3672 11.8164 L 60.4004 11.8164 C 56.7383 11.8164 54.6387 9.7168 54.6387 6.00586 L 54.6387 -58.4961 L 93.8477 -94.4336 C 94.1895 -94.7754 94.6777 -95.0684 95.2637 -95.0684 C 95.752 -95.0684 96.3379 -94.873 96.7285 -94.4824 L 135.889 -58.5449 L 135.889 6.00586 C 135.889 9.7168 133.789 11.8164 130.127 11.8164 L 114.16 11.8164 Z"/>
  </g>
  <g id="Bold-L" transform="matrix(1 0 0 1 2248.18 1556)">
   <path d="M 20.2148 -33.3008 C 22.4609 -33.3008 24.4141 -34.3262 26.0742 -35.8398 L 34.7656 -43.7988 L 34.7656 12.5977 C 34.7656 22.3145 40.6738 28.1738 50.7812 28.1738 L 132.812 28.1738 C 142.92 28.1738 148.828 22.3145 148.828 12.5977 L 148.828 -43.7988 L 157.52 -35.8398 C 159.18 -34.3262 161.133 -33.3008 163.379 -33.3008 C 167.529 -33.3008 170.703 -36.1816 170.703 -40.0879 C 170.703 -42.2363 170.117 -44.043 167.969 -45.9961 L 144.482 -67.4316 L 144.482 -106.396 C 144.482 -109.18 142.676 -110.986 139.893 -110.986 L 128.174 -110.986 C 125.391 -110.986 123.486 -109.18 123.486 -106.396 L 123.486 -86.5723 L 101.904 -106.299 C 98.877 -109.082 95.5078 -110.498 91.748 -110.498 C 88.0859 -110.498 84.7168 -109.082 81.6895 -106.299 L 15.625 -45.9961 C 13.4766 -44.043 12.8906 -42.2363 12.8906 -40.0879 C 12.8906 -36.1816 16.0645 -33.3008 20.2148 -33.3008 Z M 110.352 -27.832 C 110.352 -30.7617 108.447 -32.6172 105.518 -32.6172 L 78.0762 -32.6172 C 75.1465 -32.6172 73.1934 -30.7617 73.1934 -27.832 L 73.1934 13.7207 L 55.2734 13.7207 C 51.3184 13.7207 49.2188 11.5234 49.2188 7.56836 L 49.2188 -57.0312 L 90.0391 -94.3848 C 90.5273 -94.8242 91.1133 -95.166 91.7969 -95.166 C 92.4316 -95.166 93.0664 -94.9219 93.6035 -94.3848 L 134.375 -57.0312 L 134.375 7.56836 C 134.375 11.5234 132.275 13.7207 128.32 13.7207 L 110.352 13.7207 Z"/>
  </g>
  <g id="Semibold-L" transform="matrix(1 0 0 1 1953.86 1556)">
   <path d="M 19.1895 -34.4238 C 21.1914 -34.4238 22.9004 -35.3027 24.3164 -36.6699 L 33.1055 -44.7266 L 33.1055 12.5977 C 33.1055 21.875 38.6719 27.3438 48.2422 27.3438 L 130.615 27.3438 C 140.137 27.3438 145.703 21.875 145.703 12.5977 L 145.703 -44.7266 L 154.492 -36.6699 C 155.957 -35.3027 157.617 -34.4238 159.619 -34.4238 C 163.184 -34.4238 165.918 -36.8164 165.918 -40.1855 C 165.918 -42.1387 165.332 -43.7012 163.623 -45.2637 L 141.064 -65.8691 L 141.064 -104.443 C 141.064 -107.08 139.307 -108.838 136.67 -108.838 L 126.611 -108.838 C 123.975 -108.838 122.168 -107.08 122.168 -104.443 L 122.168 -83.0566 L 98.3887 -104.736 C 95.7031 -107.227 92.6758 -108.496 89.4043 -108.496 C 86.1328 -108.496 83.0566 -107.227 80.4199 -104.736 L 15.1855 -45.2637 C 13.4766 -43.7012 12.8906 -42.1387 12.8906 -40.1855 C 12.8906 -36.8164 15.625 -34.4238 19.1895 -34.4238 Z M 107.715 -26.8555 C 107.715 -29.7363 105.908 -31.5918 103.027 -31.5918 L 75.8301 -31.5918 C 72.9492 -31.5918 71.0449 -29.7363 71.0449 -26.8555 L 71.0449 15.0391 L 51.7578 15.0391 C 47.6074 15.0391 45.459 12.793 45.459 8.64258 L 45.459 -56.0059 L 87.4023 -94.3359 C 87.9883 -94.873 88.6719 -95.2148 89.4043 -95.2148 C 90.1367 -95.2148 90.8203 -94.9219 91.4551 -94.3359 L 133.35 -56.0059 L 133.35 8.64258 C 133.35 12.793 131.201 15.0391 127.1 15.0391 L 107.715 15.0391 Z"/>
  </g>
  <g id="Medium-L" transform="matrix(1 0 0 1 1658.96 1556)">
   <path d="M 18.4082 -35.2539 C 20.2148 -35.2539 21.7285 -36.084 22.998 -37.3047 L 31.8848 -45.4102 L 31.8848 12.6465 C 31.8848 21.582 37.1094 26.7578 46.2891 26.7578 L 128.906 26.7578 C 138.086 26.7578 143.311 21.5332 143.311 12.6465 L 143.311 -45.4102 L 152.197 -37.3047 C 153.467 -36.084 154.98 -35.2539 156.787 -35.2539 C 159.863 -35.2539 162.305 -37.3047 162.305 -40.2832 C 162.305 -42.0898 161.67 -43.4082 160.303 -44.6777 L 138.428 -64.6484 L 138.428 -102.93 C 138.428 -105.518 136.768 -107.178 134.18 -107.178 L 125.439 -107.178 C 122.9 -107.178 121.143 -105.518 121.143 -102.93 L 121.143 -80.4199 L 95.752 -103.564 C 93.3594 -105.811 90.5762 -106.982 87.5977 -106.982 C 84.6191 -106.982 81.8359 -105.811 79.4434 -103.564 L 14.8926 -44.6777 C 13.4766 -43.4082 12.8906 -42.0898 12.8906 -40.2832 C 12.8906 -37.3047 15.332 -35.2539 18.4082 -35.2539 Z M 105.762 -26.1719 C 105.762 -28.9551 103.955 -30.7617 101.123 -30.7617 L 74.0723 -30.7617 C 71.2891 -30.7617 69.3848 -28.9551 69.3848 -26.1719 L 69.3848 16.0156 L 49.0723 16.0156 C 44.8242 16.0156 42.5781 13.7695 42.5781 9.47266 L 42.5781 -55.2246 L 85.4492 -94.2871 C 86.0352 -94.873 86.7676 -95.2637 87.5977 -95.2637 C 88.3789 -95.2637 89.1602 -94.9707 89.7949 -94.3359 L 132.568 -55.2246 L 132.568 9.47266 C 132.568 13.7695 130.371 16.0156 126.123 16.0156 L 105.762 16.0156 Z"/>
  </g>
  <g id="Regular-L" transform="matrix(1 0 0 1 1364.61 1556)">
   <path d="M 17.3828 -36.3281 C 18.9453 -36.3281 20.166 -37.0605 21.2891 -38.1348 L 30.2246 -46.2891 L 30.2246 12.6953 C 30.2246 21.1914 35.1074 25.9766 43.7012 25.9766 L 126.758 25.9766 C 135.352 25.9766 140.234 21.1426 140.234 12.6953 L 140.234 -46.2891 L 149.17 -38.1348 C 150.293 -37.0605 151.514 -36.3281 153.076 -36.3281 C 155.566 -36.3281 157.568 -37.8906 157.568 -40.3809 C 157.568 -41.9922 156.982 -43.0176 155.957 -43.9453 L 135.01 -63.0859 L 135.01 -100.977 C 135.01 -103.467 133.398 -105.029 131.006 -105.029 L 123.926 -105.029 C 121.484 -105.029 119.824 -103.467 119.824 -100.977 L 119.824 -76.9043 L 92.2852 -102.051 C 90.2344 -103.955 87.793 -105.029 85.2539 -105.029 C 82.666 -105.029 80.2246 -103.955 78.1738 -102.051 L 14.502 -43.9453 C 13.4766 -43.0176 12.8906 -41.9922 12.8906 -40.3809 C 12.8906 -37.8906 14.8926 -36.3281 17.3828 -36.3281 Z M 103.174 -25.2441 C 103.174 -27.9785 101.367 -29.7363 98.6328 -29.7363 L 71.8262 -29.7363 C 69.0918 -29.7363 67.2363 -27.9785 67.2363 -25.2441 L 67.2363 17.334 L 45.5566 17.334 C 41.1133 17.334 38.8672 14.9902 38.8672 10.5469 L 38.8672 -54.1992 L 82.8613 -94.2871 C 83.5449 -94.9219 84.375 -95.3613 85.2539 -95.3613 C 86.1328 -95.3613 86.9141 -94.9707 87.6465 -94.2871 L 131.592 -54.1992 L 131.592 10.5469 C 131.592 14.9902 129.346 17.334 124.902 17.334 L 103.174 17.334 Z"/>
  </g>
  <g id="Light-L" transform="matrix(1 0 0 1 1069.61 1556)">
   <path d="M 16.2598 -36.8164 C 17.4805 -36.8164 18.3594 -37.4023 19.2383 -38.1836 L 29.2969 -47.4121 L 29.2969 13.623 C 29.2969 21.582 33.7402 25.9766 41.7969 25.9766 L 125.244 25.9766 C 133.301 25.9766 137.744 21.5332 137.744 13.623 L 137.744 -47.4121 L 147.852 -38.1836 C 148.682 -37.4023 149.561 -36.8164 150.781 -36.8164 C 152.686 -36.8164 154.15 -38.0371 154.15 -39.8438 C 154.15 -41.0645 153.711 -41.8457 152.979 -42.5781 L 133.301 -60.5469 L 133.301 -99.5605 C 133.301 -101.611 131.934 -102.93 129.932 -102.93 L 124.463 -102.93 C 122.461 -102.93 121.094 -101.611 121.094 -99.5605 L 121.094 -71.7285 L 89.8926 -100.195 C 88.0859 -101.904 85.8887 -102.93 83.5449 -102.93 C 81.2012 -102.93 78.9551 -101.904 77.1484 -100.195 L 14.1113 -42.5781 C 13.3301 -41.8457 12.8906 -41.0645 12.8906 -39.8438 C 12.8906 -38.0371 14.3555 -36.8164 16.2598 -36.8164 Z M 101.172 -24.1699 C 101.172 -26.6602 99.5605 -28.2715 97.0703 -28.2715 L 70.0195 -28.2715 C 67.5293 -28.2715 65.8691 -26.6602 65.8691 -24.1699 L 65.8691 19.3848 L 43.2129 19.3848 C 38.2812 19.3848 35.9375 16.9922 35.9375 12.0605 L 35.9375 -53.4668 L 80.9082 -94.4824 C 81.6895 -95.2148 82.5684 -95.6543 83.5449 -95.6543 C 84.5215 -95.6543 85.3516 -95.2148 86.1816 -94.4824 L 131.104 -53.4668 L 131.104 12.0605 C 131.104 16.9922 128.809 19.3848 123.877 19.3848 L 101.172 19.3848 Z"/>
  </g>
  <g id="Thin-L" transform="matrix(1 0 0 1 775.148 1556)">
   <path d="M 14.7461 -37.4512 C 15.5762 -37.4512 16.0156 -37.793 16.5039 -38.2812 L 28.0762 -48.877 L 28.0762 14.8438 C 28.0762 22.168 31.9336 26.0254 39.3066 26.0254 L 123.291 26.0254 C 130.615 26.0254 134.473 22.0703 134.473 14.8438 L 134.473 -48.877 L 146.045 -38.2812 C 146.533 -37.793 146.973 -37.4512 147.803 -37.4512 C 148.926 -37.4512 149.658 -38.1836 149.658 -39.1602 C 149.658 -39.8438 149.463 -40.2832 148.975 -40.7227 L 131.006 -57.2266 L 131.006 -97.7051 C 131.006 -99.2188 129.932 -100.195 128.516 -100.195 L 125.195 -100.195 C 123.779 -100.195 122.705 -99.2188 122.705 -97.7051 L 122.705 -64.7949 L 86.7676 -97.7539 C 85.2051 -99.2188 83.3496 -100.195 81.2988 -100.195 C 79.1992 -100.195 77.3438 -99.2188 75.8301 -97.7539 L 13.5742 -40.7227 C 13.0859 -40.2832 12.8906 -39.8438 12.8906 -39.1602 C 12.8906 -38.1836 13.623 -37.4512 14.7461 -37.4512 Z M 98.5352 -22.7051 C 98.5352 -24.9023 97.0703 -26.3184 94.9219 -26.3184 L 67.627 -26.3184 C 65.4785 -26.3184 64.0625 -24.9023 64.0625 -22.7051 L 64.0625 22.0703 L 40.0879 22.0703 C 34.4727 22.0703 32.0312 19.6289 32.0312 14.0137 L 32.0312 -52.4414 L 78.3691 -94.7754 C 79.248 -95.5566 80.1758 -96.0938 81.2988 -96.0938 C 82.373 -96.0938 83.3008 -95.5566 84.1797 -94.7754 L 130.518 -52.4414 L 130.518 14.0137 C 130.518 19.6289 128.076 22.0703 122.461 22.0703 L 98.5352 22.0703 Z"/>
  </g>
  <g id="Ultralight-L" transform="matrix(1 0 0 1 479.584 1556)">
   <path d="M 13.9648 -37.7441 C 14.5996 -37.7441 14.7949 -38.0371 15.1367 -38.3301 L 27.4902 -49.6094 L 27.4902 15.4785 C 27.4902 22.4609 31.0059 26.0254 37.9883 26.0254 L 122.266 26.0254 C 129.248 26.0254 132.812 22.3633 132.812 15.4785 L 132.812 -49.6094 L 145.166 -38.3301 C 145.459 -38.0371 145.654 -37.7441 146.289 -37.7441 C 146.973 -37.7441 147.363 -38.2812 147.363 -38.7695 C 147.363 -39.209 147.266 -39.4531 146.924 -39.7949 L 129.834 -55.5176 L 129.834 -96.7285 C 129.834 -97.9492 128.906 -98.7793 127.783 -98.7793 L 125.586 -98.7793 C 124.414 -98.7793 123.535 -97.9492 123.535 -96.7285 L 123.535 -61.2793 L 85.1562 -96.4844 C 83.7402 -97.8027 82.0801 -98.7793 80.127 -98.7793 C 78.1738 -98.7793 76.5137 -97.8027 75.1465 -96.4844 L 13.3301 -39.7949 C 12.9883 -39.4531 12.8906 -39.209 12.8906 -38.7695 C 12.8906 -38.2812 13.2812 -37.7441 13.9648 -37.7441 Z M 97.168 -21.9727 C 97.168 -23.9746 95.8496 -25.293 93.8477 -25.293 L 66.4062 -25.293 C 64.4043 -25.293 63.0859 -23.9746 63.0859 -21.9727 L 63.0859 23.4863 L 38.4766 23.4863 C 32.5195 23.4863 30.0293 20.9473 30.0293 14.9902 L 30.0293 -51.9531 L 77.0996 -94.9219 C 77.9785 -95.752 78.9551 -96.3379 80.127 -96.3379 C 81.2988 -96.3379 82.2754 -95.752 83.1543 -94.9219 L 130.225 -51.9531 L 130.225 14.9902 C 130.225 20.9473 127.734 23.4863 121.777 23.4863 L 97.168 23.4863 Z"/>
  </g>
  <g id="Black-M" transform="matrix(1 0 0 1 2853.93 1126)">
   <path d="M 18.9453 -29.7852 C 21.5332 -29.7852 23.9258 -30.7617 25.8301 -32.5195 L 32.7637 -38.916 L 32.7637 2.14844 C 32.7637 11.1816 38.623 17.041 48.3398 17.041 L 110.596 17.041 C 120.312 17.041 126.172 11.1816 126.172 2.14844 L 126.172 -38.916 L 133.105 -32.5195 C 135.01 -30.7617 137.402 -29.7852 139.99 -29.7852 C 145.166 -29.7852 148.975 -33.6426 148.975 -38.2812 C 148.975 -40.5273 148.633 -42.9199 145.508 -45.7031 L 124.365 -65.0391 L 124.365 -97.2656 C 124.365 -99.6582 122.803 -101.221 120.361 -101.221 L 105.566 -101.221 C 103.125 -101.221 101.514 -99.6582 101.514 -97.2656 L 101.514 -85.9375 L 91.2598 -95.3125 C 87.5977 -98.6328 83.8379 -100.195 79.3945 -100.195 C 75.0488 -100.195 71.2891 -98.584 67.6758 -95.3125 L 13.4277 -45.7031 C 10.3516 -42.9199 9.96094 -40.5273 9.96094 -38.2812 C 9.96094 -33.6426 13.8184 -29.7852 18.9453 -29.7852 Z M 94.5801 -32.5195 C 94.5801 -34.9609 93.0176 -36.5234 90.5762 -36.5234 L 68.4082 -36.5234 C 65.9668 -36.5234 64.3555 -34.9609 64.3555 -32.5195 L 64.3555 -1.26953 L 55.3223 -1.26953 C 52.6367 -1.26953 51.0742 -2.83203 51.0742 -5.51758 L 51.0742 -55.7617 L 78.8574 -81.3477 C 79.0039 -81.4453 79.1504 -81.5918 79.4922 -81.5918 C 79.6387 -81.5918 79.9316 -81.4941 80.0781 -81.3965 L 107.861 -55.7617 L 107.861 -5.51758 C 107.861 -2.83203 106.299 -1.26953 103.662 -1.26953 L 94.5801 -1.26953 Z"/>
  </g>
  <g id="Heavy-M" transform="matrix(1 0 0 1 2560.18 1126)">
   <path d="M 17.8223 -31.2012 C 20.1172 -31.2012 22.2168 -32.1289 23.877 -33.6914 L 30.7129 -39.9414 L 30.7129 2.00195 C 30.7129 10.498 36.084 15.8691 45.166 15.8691 L 107.861 15.8691 C 116.943 15.8691 122.363 10.498 122.363 2.00195 L 122.363 -39.9414 L 129.15 -33.6914 C 130.859 -32.1289 132.91 -31.2012 135.205 -31.2012 C 139.697 -31.2012 143.066 -34.4727 143.066 -38.5742 C 143.066 -40.625 142.676 -42.6758 140.088 -45.0195 L 119.922 -63.4277 L 119.922 -94.8242 C 119.922 -97.168 118.408 -98.6816 116.064 -98.6816 L 103.223 -98.6816 C 100.879 -98.6816 99.3164 -97.168 99.3164 -94.8242 L 99.3164 -82.2754 L 86.9141 -93.6035 C 83.6914 -96.5332 80.3223 -97.9004 76.4648 -97.9004 C 72.6562 -97.9004 69.2871 -96.4844 66.1621 -93.6035 L 12.9395 -45.0195 C 10.3516 -42.6758 9.96094 -40.625 9.96094 -38.5742 C 9.96094 -34.4727 13.3301 -31.2012 17.8223 -31.2012 Z M 91.3574 -31.4941 C 91.3574 -33.8867 89.8438 -35.4004 87.4512 -35.4004 L 65.625 -35.4004 C 63.2324 -35.4004 61.6699 -33.8867 61.6699 -31.4941 L 61.6699 0.0488281 L 50.8789 0.0488281 C 48.0957 0.0488281 46.5332 -1.5625 46.5332 -4.3457 L 46.5332 -54.4434 L 75.6836 -81.2012 C 75.8789 -81.4453 76.123 -81.5918 76.5137 -81.5918 C 76.8066 -81.5918 77.1973 -81.4941 77.3926 -81.25 L 106.543 -54.4922 L 106.543 -4.3457 C 106.543 -1.5625 104.932 0.0488281 102.148 0.0488281 L 91.3574 0.0488281 Z"/>
  </g>
  <g id="Bold-M" transform="matrix(1 0 0 1 2266.74 1126)">
   <path d="M 16.5527 -32.7637 C 18.5059 -32.7637 20.2637 -33.6426 21.7285 -34.9609 L 28.3691 -41.0645 L 28.3691 1.75781 C 28.3691 9.7168 33.3008 14.5996 41.6504 14.5996 L 104.834 14.5996 C 113.184 14.5996 118.115 9.7168 118.115 1.75781 L 118.115 -41.0645 L 124.756 -34.9609 C 126.172 -33.6426 127.93 -32.7637 129.932 -32.7637 C 133.643 -32.7637 136.523 -35.4004 136.523 -38.916 C 136.523 -40.7715 136.035 -42.4316 134.033 -44.2383 L 114.99 -61.6211 L 114.99 -92.1387 C 114.99 -94.3848 113.525 -95.8496 111.23 -95.8496 L 100.635 -95.8496 C 98.3398 -95.8496 96.8262 -94.3848 96.8262 -92.1387 L 96.8262 -78.2227 L 82.0312 -91.6992 C 79.3457 -94.1406 76.4648 -95.3613 73.1934 -95.3613 C 69.9707 -95.3613 67.041 -94.1406 64.4043 -91.6992 L 12.4023 -44.2383 C 10.4492 -42.4316 9.96094 -40.7715 9.96094 -38.916 C 9.96094 -35.4004 12.793 -32.7637 16.5527 -32.7637 Z M 87.793 -30.3223 C 87.793 -32.666 86.3281 -34.1797 83.9844 -34.1797 L 62.5488 -34.1797 C 60.2051 -34.1797 58.6426 -32.666 58.6426 -30.3223 L 58.6426 1.51367 L 45.9473 1.51367 C 43.0664 1.51367 41.4062 -0.0976562 41.4062 -3.02734 L 41.4062 -53.0273 L 72.0703 -81.1035 C 72.3633 -81.3965 72.7539 -81.5918 73.2422 -81.5918 C 73.6328 -81.5918 74.0723 -81.4453 74.4141 -81.1035 L 105.029 -53.0273 L 105.029 -3.02734 C 105.029 -0.0976562 103.418 1.51367 100.488 1.51367 L 87.793 1.51367 Z"/>
  </g>
  <g id="Semibold-M" transform="matrix(1 0 0 1 1972.32 1126)">
   <path d="M 15.6738 -33.8867 C 17.4316 -33.8867 18.9453 -34.668 20.2148 -35.8887 L 26.7578 -41.8457 L 26.7578 1.61133 C 26.7578 9.17969 31.3477 13.7207 39.209 13.7207 L 102.734 13.7207 C 110.547 13.7207 115.186 9.17969 115.186 1.61133 L 115.186 -41.8457 L 121.68 -35.8887 C 122.949 -34.668 124.512 -33.8867 126.27 -33.8867 C 129.492 -33.8867 131.934 -36.084 131.934 -39.1602 C 131.934 -40.8691 131.445 -42.2363 129.834 -43.7012 L 111.572 -60.4004 L 111.572 -90.2832 C 111.572 -92.4805 110.156 -93.8965 107.91 -93.8965 L 98.8281 -93.8965 C 96.6309 -93.8965 95.1172 -92.4805 95.1172 -90.2832 L 95.1172 -75.3906 L 78.7109 -90.3809 C 76.3672 -92.5293 73.7793 -93.6035 70.9473 -93.6035 C 68.1152 -93.6035 65.5273 -92.4805 63.2324 -90.3809 L 12.0605 -43.7012 C 10.4492 -42.2363 9.96094 -40.8691 9.96094 -39.1602 C 9.96094 -36.084 12.4512 -33.8867 15.6738 -33.8867 Z M 85.3516 -29.541 C 85.3516 -31.8359 83.8867 -33.3008 81.543 -33.3008 L 60.4004 -33.3008 C 58.0566 -33.3008 56.543 -31.8359 56.543 -29.541 L 56.543 2.53906 L 42.5293 2.53906 C 39.5508 2.53906 37.9395 0.878906 37.9395 -2.14844 L 37.9395 -52.0508 L 69.5801 -81.0059 C 69.9707 -81.3477 70.4102 -81.5918 70.9473 -81.5918 C 71.4355 -81.5918 71.9727 -81.4453 72.3633 -81.0059 L 104.004 -52.0508 L 104.004 -2.14844 C 104.004 0.878906 102.344 2.53906 99.3652 2.53906 L 85.3516 2.53906 Z"/>
  </g>
  <g id="Medium-M" transform="matrix(1 0 0 1 1677.32 1126)">
   <path d="M 14.9902 -34.7168 C 16.6016 -34.7168 17.9199 -35.4492 19.0918 -36.5723 L 25.5371 -42.4316 L 25.5371 1.51367 C 25.5371 8.78906 29.8828 13.0371 37.3535 13.0371 L 101.123 13.0371 C 108.594 13.0371 112.939 8.74023 112.939 1.51367 L 112.939 -42.4316 L 119.385 -36.5723 C 120.508 -35.4492 121.875 -34.7168 123.486 -34.7168 C 126.318 -34.7168 128.516 -36.5723 128.516 -39.3066 C 128.516 -40.918 127.979 -42.1387 126.709 -43.3105 L 108.984 -59.4727 L 108.984 -88.8672 C 108.984 -91.0156 107.568 -92.4316 105.371 -92.4316 L 97.4609 -92.4316 C 95.3125 -92.4316 93.8477 -91.0156 93.8477 -88.8672 L 93.8477 -73.291 L 76.1719 -89.3555 C 74.1211 -91.2598 71.7285 -92.2363 69.2383 -92.2363 C 66.748 -92.2363 64.3555 -91.2598 62.3047 -89.3555 L 11.7676 -43.3105 C 10.498 -42.1387 9.96094 -40.918 9.96094 -39.3066 C 9.96094 -36.5723 12.1582 -34.7168 14.9902 -34.7168 Z M 83.4961 -28.9062 C 83.4961 -31.2012 82.0312 -32.666 79.7363 -32.666 L 58.7402 -32.666 C 56.4941 -32.666 54.9316 -31.2012 54.9316 -28.9062 L 54.9316 3.32031 L 39.9902 3.32031 C 36.9141 3.32031 35.2539 1.61133 35.2539 -1.46484 L 35.2539 -51.3184 L 67.7246 -80.957 C 68.1641 -81.3477 68.6523 -81.5918 69.2383 -81.5918 C 69.7754 -81.5918 70.3125 -81.3965 70.8008 -80.957 L 103.223 -51.3184 L 103.223 -1.46484 C 103.223 1.61133 101.562 3.32031 98.4863 3.32031 L 83.4961 3.32031 Z"/>
  </g>
  <g id="Regular-M" transform="matrix(1 0 0 1 1382.85 1126)">
   <path d="M 34.9121 12.1582 L 99.0723 12.1582 C 106.006 12.1582 110.059 8.25195 110.059 1.36719 L 110.059 -43.2129 L 116.357 -37.4512 C 117.334 -36.4746 118.457 -35.791 119.873 -35.791 C 122.168 -35.791 124.023 -37.207 124.023 -39.5508 C 124.023 -41.0156 123.438 -41.9434 122.559 -42.7734 L 105.615 -58.252 L 105.615 -87.0117 C 105.615 -89.1602 104.199 -90.5273 102.1 -90.5273 L 95.7031 -90.5273 C 93.5547 -90.5273 92.1387 -89.1602 92.1387 -87.0117 L 92.1387 -70.5078 L 72.8516 -88.0859 C 71.1426 -89.6484 69.0918 -90.5273 66.9922 -90.5273 C 64.8926 -90.5273 62.8418 -89.6484 61.1328 -88.0859 L 11.4258 -42.7734 C 10.5469 -41.9434 9.96094 -41.0156 9.96094 -39.5508 C 9.96094 -37.207 11.8164 -35.791 14.1113 -35.791 C 15.4785 -35.791 16.6504 -36.4746 17.627 -37.4512 L 23.9258 -43.1641 L 23.9258 1.36719 C 23.9258 8.25195 27.9785 12.1582 34.9121 12.1582 Z M 81.0547 -28.125 C 81.0547 -30.3711 79.5898 -31.7871 77.3438 -31.7871 L 56.6406 -31.7871 C 54.3945 -31.7871 52.8809 -30.3711 52.8809 -28.125 L 52.8809 4.29688 L 36.6211 4.29688 C 33.4961 4.29688 31.7871 2.58789 31.7871 -0.585938 L 31.7871 -50.3418 L 65.2832 -80.8594 C 65.7715 -81.3477 66.3574 -81.6406 66.9922 -81.6406 C 67.627 -81.6406 68.2129 -81.3965 68.75 -80.8594 L 102.197 -50.3418 L 102.197 -0.585938 C 102.197 2.58789 100.488 4.29688 97.3633 4.29688 L 81.0547 4.29688 Z"/>
  </g>
  <g id="Light-M" transform="matrix(1 0 0 1 1087.68 1126)">
   <path d="M 33.2031 12.207 L 97.7051 12.207 C 104.199 12.207 107.812 8.59375 107.812 2.19727 L 107.812 -44.1895 L 115.137 -37.5 C 115.918 -36.7676 116.748 -36.2305 117.871 -36.2305 C 119.58 -36.2305 120.947 -37.3535 120.947 -39.0625 C 120.947 -40.1855 120.557 -40.8691 119.873 -41.5527 L 104.053 -55.957 L 104.053 -85.7422 C 104.053 -87.5 102.881 -88.623 101.123 -88.623 L 96.1914 -88.623 C 94.4336 -88.623 93.2617 -87.5 93.2617 -85.7422 L 93.2617 -65.8203 L 70.7031 -86.4258 C 69.1895 -87.8418 67.3828 -88.623 65.4785 -88.623 C 63.5742 -88.623 61.7188 -87.8418 60.2051 -86.4258 L 11.084 -41.5527 C 10.3516 -40.8691 9.96094 -40.1855 9.96094 -39.0625 C 9.96094 -37.3535 11.3281 -36.2305 13.0859 -36.2305 C 14.209 -36.2305 15.0391 -36.7676 15.7715 -37.5 L 23.0957 -44.1895 L 23.0957 2.19727 C 23.0957 8.64258 26.7578 12.207 33.2031 12.207 Z M 79.248 -27.1484 C 79.248 -29.1504 77.9297 -30.4688 75.8789 -30.4688 L 55.0293 -30.4688 C 52.9785 -30.4688 51.6602 -29.1504 51.6602 -27.1484 L 51.6602 6.15234 L 34.4727 6.15234 C 30.9082 6.15234 29.1504 4.3457 29.1504 0.732422 L 29.1504 -49.6582 L 63.5254 -81.0547 C 64.1113 -81.5918 64.7461 -81.9336 65.4785 -81.9336 C 66.1621 -81.9336 66.8457 -81.5918 67.4316 -81.0547 L 101.807 -49.707 L 101.807 0.732422 C 101.807 4.3457 100 6.15234 96.4355 6.15234 L 79.248 6.15234 Z"/>
  </g>
  <g id="Thin-M" transform="matrix(1 0 0 1 792.97 1126)">
   <path d="M 30.957 12.207 L 95.9473 12.207 C 101.758 12.207 104.883 9.08203 104.883 3.32031 L 104.883 -45.5078 L 113.525 -37.5977 C 114.014 -37.1582 114.453 -36.8164 115.186 -36.8164 C 116.211 -36.8164 116.943 -37.5 116.943 -38.4277 C 116.943 -39.0625 116.699 -39.4531 116.309 -39.8926 L 102.002 -52.9785 L 102.002 -84.0332 C 102.002 -85.3516 101.123 -86.1816 99.8535 -86.1816 L 96.8262 -86.1816 C 95.6055 -86.1816 94.7266 -85.3516 94.7266 -84.0332 L 94.7266 -59.668 L 67.8711 -84.2285 C 66.6504 -85.4004 65.1367 -86.1816 63.4277 -86.1816 C 61.7676 -86.1816 60.2539 -85.4004 59.0332 -84.2285 L 10.5957 -39.8926 C 10.1562 -39.4531 9.96094 -39.0625 9.96094 -38.4277 C 9.96094 -37.5 10.6934 -36.8164 11.7188 -36.8164 C 12.4512 -36.8164 12.8906 -37.1582 13.3301 -37.5977 L 22.0215 -45.5078 L 22.0215 3.32031 C 22.0215 9.13086 25.0977 12.207 30.957 12.207 Z M 76.9043 -25.8301 C 76.9043 -27.5879 75.7324 -28.7109 73.9746 -28.7109 L 52.9297 -28.7109 C 51.1719 -28.7109 50 -27.5879 50 -25.8301 L 50 8.59375 L 31.6895 8.59375 C 27.4902 8.59375 25.6348 6.68945 25.6348 2.49023 L 25.6348 -48.7793 L 61.2793 -81.2988 C 61.9141 -81.9336 62.6465 -82.3242 63.4277 -82.3242 C 64.2578 -82.3242 64.9902 -81.9336 65.625 -81.2988 L 101.27 -48.7793 L 101.27 2.49023 C 101.27 6.68945 99.3652 8.59375 95.166 8.59375 L 76.9043 8.59375 Z"/>
  </g>
  <g id="Ultralight-M" transform="matrix(1 0 0 1 497.284 1126)">
   <path d="M 29.834 12.207 L 95.0195 12.207 C 100.537 12.207 103.369 9.32617 103.369 3.85742 L 103.369 -46.1426 L 112.744 -37.6465 C 113.037 -37.3535 113.281 -37.1094 113.818 -37.1094 C 114.453 -37.1094 114.893 -37.5488 114.893 -38.0859 C 114.893 -38.5254 114.746 -38.7695 114.453 -39.0625 L 100.928 -51.4648 L 100.928 -83.2031 C 100.928 -84.2285 100.195 -84.9121 99.2188 -84.9121 L 97.168 -84.9121 C 96.1914 -84.9121 95.459 -84.2285 95.459 -83.2031 L 95.459 -56.4453 L 66.4551 -83.1055 C 65.332 -84.1309 63.9648 -84.9121 62.4023 -84.9121 C 60.8887 -84.9121 59.5215 -84.1309 58.3984 -83.1055 L 10.4004 -39.0625 C 10.0586 -38.7695 9.96094 -38.5254 9.96094 -38.0859 C 9.96094 -37.5488 10.3516 -37.1094 11.0352 -37.1094 C 11.5723 -37.1094 11.8164 -37.3535 12.1094 -37.6465 L 21.4355 -46.1426 L 21.4355 3.85742 C 21.4355 9.375 24.2676 12.207 29.834 12.207 Z M 75.6836 -25.1953 C 75.6836 -26.7578 74.6094 -27.832 72.998 -27.832 L 51.8066 -27.832 C 50.1953 -27.832 49.1699 -26.7578 49.1699 -25.1953 L 49.1699 9.81445 L 30.2734 9.81445 C 25.7812 9.81445 23.8281 7.91016 23.8281 3.36914 L 23.8281 -48.3398 L 60.1074 -81.4453 C 60.791 -82.0801 61.5234 -82.5195 62.4023 -82.5195 C 63.2812 -82.5195 64.0625 -82.0801 64.7461 -81.4453 L 100.977 -48.3398 L 100.977 3.36914 C 100.977 7.91016 99.0723 9.81445 94.5312 9.81445 L 75.6836 9.81445 Z"/>
  </g>
  <g id="Black-S" transform="matrix(1 0 0 1 2871.34 696)">
   <path d="M 14.7949 -31.0547 C 16.7969 -31.0547 18.6523 -31.8359 20.1172 -33.2031 L 25.5371 -38.1836 L 25.5371 -5.95703 C 25.5371 1.07422 30.0781 5.61523 37.6465 5.61523 L 86.4746 5.61523 C 94.043 5.61523 98.584 1.07422 98.584 -5.95703 L 98.584 -38.1836 L 104.004 -33.2031 C 105.469 -31.8359 107.324 -31.0547 109.326 -31.0547 C 113.33 -31.0547 116.309 -34.0332 116.309 -37.6465 C 116.309 -39.4043 116.016 -41.2598 113.623 -43.4082 L 97.1191 -58.4961 L 97.1191 -83.6426 C 97.1191 -85.5469 95.8984 -86.7676 93.9941 -86.7676 L 82.5195 -86.7676 C 80.6152 -86.7676 79.3457 -85.5469 79.3457 -83.6426 L 79.3457 -74.707 L 71.1914 -82.1777 C 68.3594 -84.7656 65.4297 -85.9863 62.0117 -85.9863 C 58.6426 -85.9863 55.7129 -84.7168 52.9297 -82.1777 L 10.498 -43.4082 C 8.10547 -41.2598 7.8125 -39.4043 7.8125 -37.6465 C 7.8125 -34.0332 10.791 -31.0547 14.7949 -31.0547 Z M 73.877 -33.0566 C 73.877 -34.9609 72.6562 -36.1816 70.752 -36.1816 L 53.418 -36.1816 C 51.5137 -36.1816 50.2441 -34.9609 50.2441 -33.0566 L 50.2441 -8.54492 L 43.0176 -8.54492 C 40.918 -8.54492 39.6973 -9.76562 39.6973 -11.8652 L 39.6973 -51.2207 L 61.5723 -71.3379 C 61.6699 -71.4355 61.8164 -71.5332 62.0605 -71.5332 C 62.207 -71.5332 62.4512 -71.4844 62.5488 -71.3867 L 84.4238 -51.2207 L 84.4238 -11.8652 C 84.4238 -9.76562 83.2031 -8.54492 81.1035 -8.54492 L 73.877 -8.54492 Z"/>
  </g>
  <g id="Heavy-S" transform="matrix(1 0 0 1 2576.7 696)">
   <path d="M 14.0137 -32.0801 C 15.8691 -32.0801 17.5293 -32.8613 18.8477 -34.082 L 24.0234 -38.8672 L 24.0234 -6.20117 C 24.0234 0.488281 28.2715 4.73633 35.4004 4.73633 L 84.5215 4.73633 C 91.6504 4.73633 95.8984 0.488281 95.8984 -6.20117 L 95.8984 -38.8672 L 101.123 -34.082 C 102.441 -32.8613 104.102 -32.0801 105.908 -32.0801 C 109.473 -32.0801 112.158 -34.668 112.158 -37.9395 C 112.158 -39.5996 111.816 -41.2109 109.766 -43.0176 L 93.8965 -57.5195 L 93.8965 -81.9336 C 93.8965 -83.8379 92.6758 -85.0586 90.8203 -85.0586 L 80.6641 -85.0586 C 78.8086 -85.0586 77.5391 -83.8379 77.5391 -81.9336 L 77.5391 -72.4609 L 68.1152 -81.0547 C 65.625 -83.3496 62.9395 -84.4238 59.9609 -84.4238 C 56.9336 -84.4238 54.2969 -83.3008 51.8555 -81.0547 L 10.1562 -43.0176 C 8.1543 -41.2109 7.8125 -39.5996 7.8125 -37.9395 C 7.8125 -34.668 10.498 -32.0801 14.0137 -32.0801 Z M 71.6309 -32.373 C 71.6309 -34.2773 70.4102 -35.498 68.5059 -35.498 L 51.4648 -35.498 C 49.5605 -35.498 48.291 -34.2773 48.291 -32.373 L 48.291 -7.76367 L 39.8926 -7.76367 C 37.7441 -7.76367 36.5234 -8.98438 36.5234 -11.1328 L 36.5234 -50.293 L 59.3262 -71.2402 C 59.4727 -71.3867 59.668 -71.5332 59.9609 -71.5332 C 60.2051 -71.5332 60.498 -71.4355 60.6445 -71.2891 L 83.4473 -50.3418 L 83.4473 -11.1328 C 83.4473 -8.98438 82.2266 -7.76367 80.0781 -7.76367 L 71.6309 -7.76367 Z"/>
  </g>
  <g id="Bold-S" transform="matrix(1 0 0 1 2282.34 696)">
   <path d="M 32.9102 3.75977 L 82.373 3.75977 C 89.0137 3.75977 92.9199 -0.146484 92.9199 -6.44531 L 92.9199 -39.5996 L 97.9004 -35.0586 C 99.0723 -33.9355 100.488 -33.252 102.1 -33.252 C 105.127 -33.252 107.471 -35.4004 107.471 -38.2324 C 107.471 -39.7949 107.08 -41.1133 105.469 -42.5781 L 90.332 -56.3965 L 90.332 -80.0293 C 90.332 -81.8848 89.1113 -83.1055 87.207 -83.1055 L 78.6133 -83.1055 C 76.7578 -83.1055 75.4883 -81.8848 75.4883 -80.0293 L 75.4883 -69.9219 L 64.6484 -79.7852 C 62.5 -81.7871 60.2051 -82.7148 57.6172 -82.7148 C 55.0781 -82.7148 52.7344 -81.7383 50.6348 -79.7852 L 9.81445 -42.5781 C 8.20312 -41.1133 7.8125 -39.7949 7.8125 -38.2324 C 7.8125 -35.4004 10.1562 -33.252 13.1836 -33.252 C 14.7949 -33.252 16.2109 -33.9355 17.4316 -35.0586 L 22.3633 -39.5996 L 22.3633 -6.44531 C 22.3633 -0.146484 26.3184 3.75977 32.9102 3.75977 Z M 69.1406 -31.5918 C 69.1406 -33.4961 67.9199 -34.668 66.0156 -34.668 L 49.2676 -34.668 C 47.4121 -34.668 46.1426 -33.4961 46.1426 -31.5918 L 46.1426 -6.83594 L 36.377 -6.83594 C 34.1797 -6.83594 32.959 -8.10547 32.959 -10.3027 L 32.959 -49.2676 L 56.7871 -71.0938 C 56.9824 -71.3379 57.2754 -71.4844 57.666 -71.4844 C 57.959 -71.4844 58.3008 -71.3867 58.5449 -71.1426 L 82.3242 -49.3164 L 82.3242 -10.3027 C 82.3242 -8.10547 81.1035 -6.83594 78.9551 -6.83594 L 69.1406 -6.83594 Z"/>
  </g>
  <g id="Semibold-S" transform="matrix(1 0 0 1 1987.24 696)">
   <path d="M 31.2012 3.07617 L 80.8594 3.07617 C 87.1582 3.07617 90.8691 -0.585938 90.8691 -6.64062 L 90.8691 -40.0879 L 95.6543 -35.7422 C 96.7285 -34.7168 97.998 -34.082 99.5117 -34.082 C 102.148 -34.082 104.248 -35.8887 104.248 -38.4766 C 104.248 -39.8926 103.809 -41.0645 102.49 -42.2852 L 87.8418 -55.6641 L 87.8418 -78.7109 C 87.8418 -80.5664 86.6211 -81.7871 84.7656 -81.7871 L 77.1973 -81.7871 C 75.3418 -81.7871 74.1211 -80.5664 74.1211 -78.7109 L 74.1211 -68.1641 L 62.2559 -78.9551 C 60.4004 -80.6641 58.3008 -81.543 56.0059 -81.543 C 53.7598 -81.543 51.6602 -80.6641 49.8047 -78.9551 L 9.57031 -42.2852 C 8.25195 -41.0645 7.8125 -39.8926 7.8125 -38.4766 C 7.8125 -35.8887 9.91211 -34.082 12.5977 -34.082 C 14.0625 -34.082 15.332 -34.7168 16.4062 -35.7422 L 21.1914 -40.0879 L 21.1914 -6.64062 C 21.1914 -0.585938 24.9023 3.07617 31.2012 3.07617 Z M 67.3828 -31.0547 C 67.3828 -32.959 66.2109 -34.1309 64.3066 -34.1309 L 47.8027 -34.1309 C 45.8984 -34.1309 44.6289 -32.959 44.6289 -31.0547 L 44.6289 -6.20117 L 33.9355 -6.20117 C 31.7383 -6.20117 30.4688 -7.51953 30.4688 -9.7168 L 30.4688 -48.584 L 55.0293 -71.0449 C 55.3223 -71.2891 55.6641 -71.4844 56.0547 -71.4844 C 56.3965 -71.4844 56.7871 -71.3379 57.0801 -71.0449 L 81.5918 -48.6328 L 81.5918 -9.7168 C 81.5918 -7.51953 80.3223 -6.20117 78.125 -6.20117 L 67.3828 -6.20117 Z"/>
  </g>
  <g id="Medium-S" transform="matrix(1 0 0 1 1691.75 696)">
   <path d="M 29.8828 2.58789 L 79.7363 2.58789 C 85.7422 2.58789 89.3555 -0.927734 89.3555 -6.78711 L 89.3555 -40.4785 L 93.9453 -36.2305 C 94.9707 -35.3027 96.1426 -34.668 97.5098 -34.668 C 99.9023 -34.668 101.807 -36.2305 101.807 -38.623 C 101.807 -40.0391 101.367 -41.0645 100.244 -42.041 L 85.9375 -55.0781 L 85.9375 -77.7344 C 85.9375 -79.5898 84.7656 -80.7617 82.9102 -80.7617 L 76.123 -80.7617 C 74.2676 -80.7617 73.0469 -79.5898 73.0469 -77.7344 L 73.0469 -66.8457 L 60.4492 -78.2715 C 58.7891 -79.834 56.8359 -80.6152 54.834 -80.6152 C 52.7832 -80.6152 50.8301 -79.834 49.1699 -78.2715 L 9.375 -42.041 C 8.30078 -41.0645 7.8125 -40.0391 7.8125 -38.623 C 7.8125 -36.2305 9.7168 -34.668 12.1582 -34.668 C 13.5254 -34.668 14.6973 -35.3027 15.6738 -36.2305 L 20.3125 -40.4785 L 20.3125 -6.78711 C 20.3125 -0.927734 23.877 2.58789 29.8828 2.58789 Z M 66.0645 -30.6641 C 66.0645 -32.5195 64.8926 -33.7402 62.9883 -33.7402 L 46.6309 -33.7402 C 44.7754 -33.7402 43.5059 -32.5195 43.5059 -30.6641 L 43.5059 -5.76172 L 32.0801 -5.76172 C 29.8828 -5.76172 28.6133 -7.08008 28.6133 -9.27734 L 28.6133 -48.0957 L 53.7109 -70.9473 C 54.0039 -71.2891 54.3945 -71.4355 54.834 -71.4355 C 55.2246 -71.4355 55.6152 -71.3379 55.957 -70.9473 L 81.0059 -48.0957 L 81.0059 -9.27734 C 81.0059 -7.08008 79.7363 -5.76172 77.5391 -5.76172 L 66.0645 -5.76172 Z"/>
  </g>
  <g id="Regular-S" transform="matrix(1 0 0 1 1396.62 696)">
   <path d="M 28.2227 1.9043 L 78.2715 1.9043 C 83.9355 1.9043 87.3047 -1.36719 87.3047 -6.93359 L 87.3047 -40.9668 L 91.748 -36.9141 C 92.627 -36.084 93.6523 -35.4492 94.9219 -35.4492 C 96.9727 -35.4492 98.6328 -36.7188 98.6328 -38.8184 C 98.6328 -40.1367 98.1445 -41.0156 97.3145 -41.748 L 83.4961 -54.3457 L 83.4961 -76.416 C 83.4961 -78.2715 82.3242 -79.4434 80.4688 -79.4434 L 74.7559 -79.4434 C 72.9004 -79.4434 71.6797 -78.2715 71.6797 -76.416 L 71.6797 -65.0879 L 58.1055 -77.4414 C 56.6895 -78.7598 54.9805 -79.4434 53.2227 -79.4434 C 51.5137 -79.4434 49.7559 -78.7598 48.3398 -77.4414 L 9.13086 -41.748 C 8.34961 -41.0156 7.8125 -40.1367 7.8125 -38.8184 C 7.8125 -36.7188 9.47266 -35.4492 11.5723 -35.4492 C 12.793 -35.4492 13.8184 -36.084 14.6973 -36.9141 L 19.1406 -40.9668 L 19.1406 -6.93359 C 19.1406 -1.36719 22.5098 1.9043 28.2227 1.9043 Z M 64.3555 -30.127 C 64.3555 -31.9824 63.1836 -33.2031 61.2793 -33.2031 L 45.166 -33.2031 C 43.3105 -33.2031 42.041 -31.9824 42.041 -30.127 L 42.041 -5.12695 L 29.6875 -5.12695 C 27.4902 -5.12695 26.2207 -6.44531 26.2207 -8.74023 L 26.2207 -47.4121 L 52.002 -70.8984 C 52.3438 -71.2402 52.7832 -71.4355 53.2227 -71.4355 C 53.6621 -71.4355 54.1504 -71.2891 54.541 -70.8984 L 80.2734 -47.4121 L 80.2734 -8.74023 C 80.2734 -6.44531 78.9551 -5.12695 76.7578 -5.12695 L 64.3555 -5.12695 Z"/>
  </g>
  <g id="Light-S" transform="matrix(1 0 0 1 1101.25 696)">
   <path d="M 26.709 1.9043 L 77.0508 1.9043 C 82.3242 1.9043 85.3516 -1.02539 85.3516 -6.20117 L 85.3516 -41.8457 L 90.6738 -36.9629 C 91.3574 -36.3281 92.1387 -35.8398 93.1152 -35.8398 C 94.6777 -35.8398 95.9473 -36.8164 95.9473 -38.4277 C 95.9473 -39.4043 95.5566 -40.0391 94.9219 -40.6738 L 82.1289 -52.3438 L 82.1289 -75.293 C 82.1289 -76.8066 81.1035 -77.7832 79.6387 -77.7832 L 75.1953 -77.7832 C 73.6816 -77.7832 72.6562 -76.8066 72.6562 -75.293 L 72.6562 -60.9863 L 56.2012 -75.9766 C 54.9805 -77.1484 53.4668 -77.7832 51.9043 -77.7832 C 50.293 -77.7832 48.7793 -77.1484 47.5586 -75.9766 L 8.83789 -40.6738 C 8.20312 -40.0391 7.8125 -39.4043 7.8125 -38.4277 C 7.8125 -36.8164 9.08203 -35.8398 10.6445 -35.8398 C 11.6211 -35.8398 12.4023 -36.3281 13.0859 -36.9629 L 18.4082 -41.8457 L 18.4082 -6.20117 C 18.4082 -1.02539 21.4355 1.9043 26.709 1.9043 Z M 62.793 -29.248 C 62.793 -30.957 61.7188 -32.0312 60.0098 -32.0312 L 43.75 -32.0312 C 42.041 -32.0312 40.9668 -30.957 40.9668 -29.248 L 40.9668 -3.51562 L 27.832 -3.51562 C 25.1953 -3.51562 23.877 -4.88281 23.877 -7.56836 L 23.877 -46.8262 L 50.4395 -71.0449 C 50.8789 -71.4355 51.3672 -71.6797 51.9043 -71.6797 C 52.3926 -71.6797 52.8809 -71.4844 53.3203 -71.0449 L 79.9316 -46.8262 L 79.9316 -7.56836 C 79.9316 -4.88281 78.5645 -3.51562 75.9277 -3.51562 L 62.793 -3.51562 Z"/>
  </g>
  <g id="Thin-S" transform="matrix(1 0 0 1 806.325 696)">
   <path d="M 24.707 1.95312 L 75.4883 1.95312 C 80.2246 1.95312 82.7637 -0.634766 82.7637 -5.27344 L 82.7637 -43.0176 L 89.2578 -37.0605 C 89.6973 -36.6699 90.0879 -36.3281 90.7715 -36.3281 C 91.6992 -36.3281 92.3828 -36.9629 92.3828 -37.8418 C 92.3828 -38.4766 92.1875 -38.8184 91.7969 -39.209 L 80.3223 -49.707 L 80.3223 -73.7793 C 80.3223 -74.9023 79.541 -75.5859 78.5156 -75.5859 L 75.7324 -75.5859 C 74.707 -75.5859 73.9258 -74.9023 73.9258 -73.7793 L 73.9258 -55.5176 L 53.7109 -74.0234 C 52.6855 -75 51.4648 -75.5859 50.0977 -75.5859 C 48.7305 -75.5859 47.5098 -75 46.4844 -74.0234 L 8.39844 -39.209 C 8.00781 -38.8184 7.8125 -38.4766 7.8125 -37.8418 C 7.8125 -36.9629 8.49609 -36.3281 9.47266 -36.3281 C 10.1074 -36.3281 10.498 -36.6699 10.9375 -37.0605 L 17.4805 -43.0176 L 17.4805 -5.27344 C 17.4805 -0.585938 20.0195 1.95312 24.707 1.95312 Z M 60.6934 -28.125 C 60.6934 -29.541 59.7656 -30.4688 58.3496 -30.4688 L 41.8457 -30.4688 C 40.4297 -30.4688 39.502 -29.541 39.502 -28.125 L 39.502 -1.36719 L 25.3906 -1.36719 C 22.2168 -1.36719 20.752 -2.83203 20.752 -6.00586 L 20.752 -46.0449 L 48.4375 -71.2891 C 48.9258 -71.7285 49.4629 -72.0215 50.0977 -72.0215 C 50.7324 -72.0215 51.2695 -71.7285 51.7578 -71.2891 L 79.4434 -46.0449 L 79.4434 -6.00586 C 79.4434 -2.83203 77.9785 -1.36719 74.8047 -1.36719 L 60.6934 -1.36719 Z"/>
  </g>
  <g id="Ultralight-S" transform="matrix(1 0 0 1 510.517 696)">
   <path d="M 23.6816 1.95312 L 74.707 1.95312 C 79.1016 1.95312 81.3965 -0.390625 81.3965 -4.73633 L 81.3965 -43.6035 L 88.5254 -37.1094 C 88.8184 -36.8164 89.0625 -36.6211 89.5508 -36.6211 C 90.1367 -36.6211 90.5762 -37.0605 90.5762 -37.5488 C 90.5762 -37.9395 90.4297 -38.1836 90.1855 -38.4766 L 79.3457 -48.3398 L 79.3457 -73.0469 C 79.3457 -73.9258 78.7598 -74.4629 77.9297 -74.4629 L 76.0742 -74.4629 C 75.2441 -74.4629 74.6094 -73.9258 74.6094 -73.0469 L 74.6094 -52.7344 L 52.4414 -73.0469 C 51.5137 -73.877 50.4395 -74.4629 49.1699 -74.4629 C 47.9492 -74.4629 46.8262 -73.877 45.9473 -73.0469 L 8.20312 -38.4766 C 7.91016 -38.1836 7.8125 -37.9395 7.8125 -37.5488 C 7.8125 -37.0605 8.20312 -36.6211 8.83789 -36.6211 C 9.32617 -36.6211 9.57031 -36.8164 9.81445 -37.1094 L 16.9434 -43.6035 L 16.9434 -4.73633 C 16.9434 -0.341797 19.2383 1.95312 23.6816 1.95312 Z M 59.6191 -27.5391 C 59.6191 -28.8086 58.7891 -29.6875 57.4707 -29.6875 L 40.918 -29.6875 C 39.5996 -29.6875 38.7695 -28.8086 38.7695 -27.5391 L 38.7695 -0.244141 L 24.1211 -0.244141 C 20.6543 -0.244141 19.1406 -1.75781 19.1406 -5.22461 L 19.1406 -45.6055 L 47.4121 -71.3867 C 47.9492 -71.875 48.5352 -72.2168 49.1699 -72.2168 C 49.8535 -72.2168 50.4395 -71.875 50.9766 -71.3867 L 79.1992 -45.6055 L 79.1992 -5.22461 C 79.1992 -1.75781 77.6855 -0.244141 74.2676 -0.244141 L 59.6191 -0.244141 Z"/>
  </g>
 </g>
</svg>
